<mxfile host="app.diagrams.net" agent="Mozilla/5.0 (Macintosh; Intel Mac OS X 10_15_7) AppleWebKit/605.1.15 (KHTML, like Gecko) Version/18.5 Safari/605.1.15" version="27.2.0" pages="5">
  <diagram name="Pagina-1" id="QvH7E5pYF4uOzvIW_a2h">
    <mxGraphModel dx="694" dy="780" grid="1" gridSize="10" guides="1" tooltips="1" connect="1" arrows="1" fold="1" page="1" pageScale="1" pageWidth="827" pageHeight="1169" math="0" shadow="0">
      <root>
        <mxCell id="0" />
        <mxCell id="1" parent="0" />
        <mxCell id="B7uklT9XOEuCtpNH9jRa-2" value="Utente Candidato" style="shape=umlActor;verticalLabelPosition=bottom;verticalAlign=top;html=1;outlineConnect=0;" parent="1" vertex="1">
          <mxGeometry x="70" y="420" width="30" height="60" as="geometry" />
        </mxCell>
        <mxCell id="B7uklT9XOEuCtpNH9jRa-4" value="&lt;font style=&quot;font-size: 9px;&quot;&gt;inserimentoCompetenze&lt;/font&gt;" style="ellipse;whiteSpace=wrap;html=1;" parent="1" vertex="1">
          <mxGeometry x="160" y="355" width="130" height="25" as="geometry" />
        </mxCell>
        <mxCell id="B7uklT9XOEuCtpNH9jRa-5" value="&lt;font style=&quot;font-size: 9px;&quot;&gt;gestisciDiploma&lt;/font&gt;" style="ellipse;whiteSpace=wrap;html=1;" parent="1" vertex="1">
          <mxGeometry x="330" y="310" width="130" height="25" as="geometry" />
        </mxCell>
        <mxCell id="B7uklT9XOEuCtpNH9jRa-6" value="&lt;font style=&quot;font-size: 9px;&quot;&gt;gestisciLaurea&lt;/font&gt;" style="ellipse;whiteSpace=wrap;html=1;" parent="1" vertex="1">
          <mxGeometry x="330" y="347.5" width="130" height="25" as="geometry" />
        </mxCell>
        <mxCell id="B7uklT9XOEuCtpNH9jRa-7" value="&lt;font style=&quot;font-size: 9px;&quot;&gt;gestisciAttestato&lt;/font&gt;" style="ellipse;whiteSpace=wrap;html=1;" parent="1" vertex="1">
          <mxGeometry x="330" y="380" width="130" height="25" as="geometry" />
        </mxCell>
        <mxCell id="B7uklT9XOEuCtpNH9jRa-8" value="&lt;font style=&quot;font-size: 9px;&quot;&gt;inviaCandidatura&lt;/font&gt;" style="ellipse;whiteSpace=wrap;html=1;" parent="1" vertex="1">
          <mxGeometry x="160" y="420" width="130" height="25" as="geometry" />
        </mxCell>
        <mxCell id="B7uklT9XOEuCtpNH9jRa-9" value="&lt;font style=&quot;font-size: 9px;&quot;&gt;visualizzaCandidature&lt;/font&gt;" style="ellipse;whiteSpace=wrap;html=1;" parent="1" vertex="1">
          <mxGeometry x="160" y="460" width="130" height="25" as="geometry" />
        </mxCell>
        <mxCell id="B7uklT9XOEuCtpNH9jRa-10" value="&lt;font style=&quot;font-size: 9px;&quot;&gt;visualizzaDettagliColloquio&lt;/font&gt;" style="ellipse;whiteSpace=wrap;html=1;" parent="1" vertex="1">
          <mxGeometry x="330" y="460" width="130" height="25" as="geometry" />
        </mxCell>
        <mxCell id="B7uklT9XOEuCtpNH9jRa-11" value="&lt;font style=&quot;font-size: 9px;&quot;&gt;visualizzaValutazione&lt;/font&gt;" style="ellipse;whiteSpace=wrap;html=1;" parent="1" vertex="1">
          <mxGeometry x="330" y="500" width="130" height="25" as="geometry" />
        </mxCell>
        <mxCell id="B7uklT9XOEuCtpNH9jRa-12" value="&lt;font style=&quot;font-size: 9px;&quot;&gt;visualizzaOfferteCompatibili&lt;/font&gt;" style="ellipse;whiteSpace=wrap;html=1;" parent="1" vertex="1">
          <mxGeometry x="160" y="500" width="130" height="25" as="geometry" />
        </mxCell>
        <mxCell id="B7uklT9XOEuCtpNH9jRa-13" value="&lt;font style=&quot;font-size: 9px;&quot;&gt;loginCandidato&lt;/font&gt;" style="ellipse;whiteSpace=wrap;html=1;" parent="1" vertex="1">
          <mxGeometry x="160" y="540" width="130" height="25" as="geometry" />
        </mxCell>
        <mxCell id="B7uklT9XOEuCtpNH9jRa-14" value="&lt;font style=&quot;font-size: 9px;&quot;&gt;visualizzaPannelloNotifiche&lt;/font&gt;" style="ellipse;whiteSpace=wrap;html=1;" parent="1" vertex="1">
          <mxGeometry x="160" y="580" width="130" height="25" as="geometry" />
        </mxCell>
        <mxCell id="B7uklT9XOEuCtpNH9jRa-15" value="&lt;font style=&quot;font-size: 9px;&quot;&gt;aggiungiPortfolio&lt;/font&gt;" style="ellipse;whiteSpace=wrap;html=1;" parent="1" vertex="1">
          <mxGeometry x="160" y="620" width="130" height="25" as="geometry" />
        </mxCell>
        <mxCell id="B7uklT9XOEuCtpNH9jRa-16" value="&lt;font style=&quot;font-size: 9px;&quot;&gt;visualizzaProfiloAzienda&lt;/font&gt;" style="ellipse;whiteSpace=wrap;html=1;" parent="1" vertex="1">
          <mxGeometry x="330" y="420" width="130" height="25" as="geometry" />
        </mxCell>
        <mxCell id="B7uklT9XOEuCtpNH9jRa-17" value="" style="swimlane;startSize=0;" parent="1" vertex="1">
          <mxGeometry x="150" y="260" width="550" height="410" as="geometry" />
        </mxCell>
        <mxCell id="B7uklT9XOEuCtpNH9jRa-34" value="" style="endArrow=block;dashed=1;endFill=0;endSize=5;html=1;rounded=0;fontSize=12;curved=1;exitX=1;exitY=0.5;exitDx=0;exitDy=0;entryX=0;entryY=0.5;entryDx=0;entryDy=0;strokeWidth=1;" parent="B7uklT9XOEuCtpNH9jRa-17" edge="1">
          <mxGeometry width="160" relative="1" as="geometry">
            <mxPoint x="180" y="212.20999999999998" as="sourcePoint" />
            <mxPoint x="140" y="212.20999999999998" as="targetPoint" />
          </mxGeometry>
        </mxCell>
        <mxCell id="B7uklT9XOEuCtpNH9jRa-35" value="&lt;font style=&quot;font-size: 6px;&quot;&gt;&amp;lt;&amp;lt;extend&amp;gt;&amp;gt;&lt;/font&gt;" style="edgeLabel;html=1;align=center;verticalAlign=middle;resizable=0;points=[];fontSize=12;" parent="B7uklT9XOEuCtpNH9jRa-34" vertex="1" connectable="0">
          <mxGeometry x="-0.5167" y="2" relative="1" as="geometry">
            <mxPoint x="-10" y="-14" as="offset" />
          </mxGeometry>
        </mxCell>
        <mxCell id="B7uklT9XOEuCtpNH9jRa-51" value="&lt;font style=&quot;font-size: 9px;&quot;&gt;creaUtenteAziendale&lt;/font&gt;" style="ellipse;whiteSpace=wrap;html=1;" parent="B7uklT9XOEuCtpNH9jRa-17" vertex="1">
          <mxGeometry x="400" y="290" width="130" height="25" as="geometry" />
        </mxCell>
        <mxCell id="B7uklT9XOEuCtpNH9jRa-52" value="&lt;font style=&quot;font-size: 9px;&quot;&gt;gestioneUtentiAziendali&lt;/font&gt;" style="ellipse;whiteSpace=wrap;html=1;" parent="B7uklT9XOEuCtpNH9jRa-17" vertex="1">
          <mxGeometry x="400" y="320" width="130" height="25" as="geometry" />
        </mxCell>
        <mxCell id="B7uklT9XOEuCtpNH9jRa-53" value="&lt;font style=&quot;font-size: 9px;&quot;&gt;gestioneProfiloAziendale&lt;/font&gt;" style="ellipse;whiteSpace=wrap;html=1;" parent="B7uklT9XOEuCtpNH9jRa-17" vertex="1">
          <mxGeometry x="400" y="350" width="130" height="25" as="geometry" />
        </mxCell>
        <mxCell id="B7uklT9XOEuCtpNH9jRa-54" value="&lt;font style=&quot;font-size: 9px;&quot;&gt;registraAzienda&lt;/font&gt;" style="ellipse;whiteSpace=wrap;html=1;" parent="B7uklT9XOEuCtpNH9jRa-17" vertex="1">
          <mxGeometry x="400" y="380" width="130" height="25" as="geometry" />
        </mxCell>
        <mxCell id="B7uklT9XOEuCtpNH9jRa-55" value="&lt;font style=&quot;font-size: 9px;&quot;&gt;creazioneOfferta&lt;/font&gt;" style="ellipse;whiteSpace=wrap;html=1;" parent="B7uklT9XOEuCtpNH9jRa-17" vertex="1">
          <mxGeometry x="400" y="250" width="130" height="25" as="geometry" />
        </mxCell>
        <mxCell id="B7uklT9XOEuCtpNH9jRa-56" value="&lt;font style=&quot;font-size: 9px;&quot;&gt;gestioneColloqui&lt;/font&gt;" style="ellipse;whiteSpace=wrap;html=1;" parent="B7uklT9XOEuCtpNH9jRa-17" vertex="1">
          <mxGeometry x="400" y="220" width="130" height="25" as="geometry" />
        </mxCell>
        <mxCell id="B7uklT9XOEuCtpNH9jRa-58" value="&lt;font style=&quot;font-size: 9px;&quot;&gt;creaValutazioneCandidato&lt;/font&gt;" style="ellipse;whiteSpace=wrap;html=1;" parent="B7uklT9XOEuCtpNH9jRa-17" vertex="1">
          <mxGeometry x="400" y="150" width="130" height="25" as="geometry" />
        </mxCell>
        <mxCell id="B7uklT9XOEuCtpNH9jRa-57" value="&lt;font style=&quot;font-size: 9px;&quot;&gt;fissaColloquio&lt;/font&gt;" style="ellipse;whiteSpace=wrap;html=1;" parent="B7uklT9XOEuCtpNH9jRa-17" vertex="1">
          <mxGeometry x="327" y="184" width="130" height="25" as="geometry" />
        </mxCell>
        <mxCell id="B7uklT9XOEuCtpNH9jRa-59" value="" style="endArrow=none;html=1;rounded=0;fontSize=12;startSize=8;endSize=8;curved=1;exitX=1;exitY=0.5;exitDx=0;exitDy=0;" parent="B7uklT9XOEuCtpNH9jRa-17" source="B7uklT9XOEuCtpNH9jRa-57" edge="1">
          <mxGeometry width="50" height="50" relative="1" as="geometry">
            <mxPoint x="430" y="160" as="sourcePoint" />
            <mxPoint x="590" y="190" as="targetPoint" />
          </mxGeometry>
        </mxCell>
        <mxCell id="B7uklT9XOEuCtpNH9jRa-60" value="&lt;font style=&quot;font-size: 9px;&quot;&gt;visualizzaClassificaCompatibilita&lt;/font&gt;" style="ellipse;whiteSpace=wrap;html=1;" parent="B7uklT9XOEuCtpNH9jRa-17" vertex="1">
          <mxGeometry x="327" y="40" width="130" height="25" as="geometry" />
        </mxCell>
        <mxCell id="B7uklT9XOEuCtpNH9jRa-61" value="&lt;font style=&quot;font-size: 9px;&quot;&gt;GestioneCandidature&lt;/font&gt;" style="ellipse;whiteSpace=wrap;html=1;" parent="B7uklT9XOEuCtpNH9jRa-17" vertex="1">
          <mxGeometry x="410" y="105" width="130" height="25" as="geometry" />
        </mxCell>
        <mxCell id="B7uklT9XOEuCtpNH9jRa-62" value="&lt;font style=&quot;font-size: 9px;&quot;&gt;visualizzaOfferteAzienda&lt;/font&gt;" style="ellipse;whiteSpace=wrap;html=1;" parent="B7uklT9XOEuCtpNH9jRa-17" vertex="1">
          <mxGeometry x="410" y="10" width="130" height="25" as="geometry" />
        </mxCell>
        <mxCell id="B7uklT9XOEuCtpNH9jRa-65" value="&lt;font style=&quot;font-size: 9px;&quot;&gt;visualizzaProfiloCandidato&lt;/font&gt;" style="ellipse;whiteSpace=wrap;html=1;" parent="B7uklT9XOEuCtpNH9jRa-17" vertex="1">
          <mxGeometry x="410" y="70" width="130" height="25" as="geometry" />
        </mxCell>
        <mxCell id="B7uklT9XOEuCtpNH9jRa-66" value="" style="endArrow=block;dashed=1;endFill=0;endSize=5;html=1;rounded=0;fontSize=12;curved=1;exitX=0;exitY=0.5;exitDx=0;exitDy=0;entryX=0;entryY=0.5;entryDx=0;entryDy=0;strokeWidth=1;" parent="B7uklT9XOEuCtpNH9jRa-17" edge="1">
          <mxGeometry width="160" relative="1" as="geometry">
            <mxPoint x="410" y="80" as="sourcePoint" />
            <mxPoint x="410" y="115" as="targetPoint" />
          </mxGeometry>
        </mxCell>
        <mxCell id="B7uklT9XOEuCtpNH9jRa-67" value="&lt;font style=&quot;font-size: 6px;&quot;&gt;&amp;lt;&amp;lt;extend&amp;gt;&amp;gt;&lt;/font&gt;" style="edgeLabel;html=1;align=center;verticalAlign=middle;resizable=0;points=[];fontSize=12;" parent="B7uklT9XOEuCtpNH9jRa-66" vertex="1" connectable="0">
          <mxGeometry x="-0.5167" y="2" relative="1" as="geometry">
            <mxPoint x="-28" y="-6" as="offset" />
          </mxGeometry>
        </mxCell>
        <mxCell id="B7uklT9XOEuCtpNH9jRa-68" value="" style="endArrow=block;dashed=1;endFill=0;endSize=5;html=1;rounded=0;fontSize=12;curved=1;exitX=0.5;exitY=0;exitDx=0;exitDy=0;entryX=0;entryY=0.5;entryDx=0;entryDy=0;strokeWidth=1;" parent="B7uklT9XOEuCtpNH9jRa-17" source="B7uklT9XOEuCtpNH9jRa-60" target="B7uklT9XOEuCtpNH9jRa-62" edge="1">
          <mxGeometry width="160" relative="1" as="geometry">
            <mxPoint x="420" y="20" as="sourcePoint" />
            <mxPoint x="380" y="20" as="targetPoint" />
          </mxGeometry>
        </mxCell>
        <mxCell id="B7uklT9XOEuCtpNH9jRa-69" value="&lt;font style=&quot;font-size: 6px;&quot;&gt;&amp;lt;&amp;lt;extend&amp;gt;&amp;gt;&lt;/font&gt;" style="edgeLabel;html=1;align=center;verticalAlign=middle;resizable=0;points=[];fontSize=12;" parent="B7uklT9XOEuCtpNH9jRa-68" vertex="1" connectable="0">
          <mxGeometry x="-0.5167" y="2" relative="1" as="geometry">
            <mxPoint x="-27" y="-6" as="offset" />
          </mxGeometry>
        </mxCell>
        <mxCell id="B7uklT9XOEuCtpNH9jRa-70" value="" style="endArrow=block;dashed=1;endFill=0;endSize=5;html=1;rounded=0;fontSize=12;curved=1;exitX=0.438;exitY=-0.04;exitDx=0;exitDy=0;entryX=0.924;entryY=0.127;entryDx=0;entryDy=0;strokeWidth=1;entryPerimeter=0;exitPerimeter=0;" parent="B7uklT9XOEuCtpNH9jRa-17" source="B7uklT9XOEuCtpNH9jRa-58" edge="1">
          <mxGeometry width="160" relative="1" as="geometry">
            <mxPoint x="439" y="147" as="sourcePoint" />
            <mxPoint x="457" y="130" as="targetPoint" />
          </mxGeometry>
        </mxCell>
        <mxCell id="B7uklT9XOEuCtpNH9jRa-71" value="&lt;font style=&quot;font-size: 6px;&quot;&gt;&amp;lt;&amp;lt;extend&amp;gt;&amp;gt;&lt;/font&gt;" style="edgeLabel;html=1;align=center;verticalAlign=middle;resizable=0;points=[];fontSize=12;" parent="B7uklT9XOEuCtpNH9jRa-70" vertex="1" connectable="0">
          <mxGeometry x="-0.5167" y="2" relative="1" as="geometry">
            <mxPoint x="25" y="-4" as="offset" />
          </mxGeometry>
        </mxCell>
        <mxCell id="B7uklT9XOEuCtpNH9jRa-73" value="" style="endArrow=block;dashed=1;endFill=0;endSize=5;html=1;rounded=0;fontSize=12;curved=1;strokeWidth=1;entryX=0.411;entryY=0.063;entryDx=0;entryDy=0;entryPerimeter=0;strokeColor=default;exitX=0.41;exitY=-0.04;exitDx=0;exitDy=0;exitPerimeter=0;" parent="B7uklT9XOEuCtpNH9jRa-17" source="B7uklT9XOEuCtpNH9jRa-57" edge="1">
          <mxGeometry width="160" relative="1" as="geometry">
            <mxPoint x="400" y="120" as="sourcePoint" />
            <mxPoint x="410" y="120" as="targetPoint" />
          </mxGeometry>
        </mxCell>
        <mxCell id="B7uklT9XOEuCtpNH9jRa-74" value="&lt;font style=&quot;font-size: 6px;&quot;&gt;&amp;lt;&amp;lt;extend&amp;gt;&amp;gt;&lt;/font&gt;" style="edgeLabel;html=1;align=center;verticalAlign=middle;resizable=0;points=[];fontSize=12;" parent="B7uklT9XOEuCtpNH9jRa-73" vertex="1" connectable="0">
          <mxGeometry x="-0.5167" y="2" relative="1" as="geometry">
            <mxPoint x="-16" y="-9" as="offset" />
          </mxGeometry>
        </mxCell>
        <mxCell id="B7uklT9XOEuCtpNH9jRa-76" value="" style="endArrow=block;dashed=1;endFill=0;endSize=5;html=1;rounded=0;fontSize=12;curved=1;strokeWidth=1;entryX=0.348;entryY=0.943;entryDx=0;entryDy=0;entryPerimeter=0;strokeColor=default;exitX=0.348;exitY=0.943;exitDx=0;exitDy=0;exitPerimeter=0;" parent="B7uklT9XOEuCtpNH9jRa-17" source="B7uklT9XOEuCtpNH9jRa-57" edge="1">
          <mxGeometry width="160" relative="1" as="geometry">
            <mxPoint x="430" y="160" as="sourcePoint" />
            <mxPoint x="400" y="226" as="targetPoint" />
          </mxGeometry>
        </mxCell>
        <mxCell id="B7uklT9XOEuCtpNH9jRa-77" value="&lt;font style=&quot;font-size: 6px;&quot;&gt;&amp;lt;&amp;lt;extend&amp;gt;&amp;gt;&lt;/font&gt;" style="edgeLabel;html=1;align=center;verticalAlign=middle;resizable=0;points=[];fontSize=12;" parent="B7uklT9XOEuCtpNH9jRa-76" vertex="1" connectable="0">
          <mxGeometry x="-0.5167" y="2" relative="1" as="geometry">
            <mxPoint x="-22" y="6" as="offset" />
          </mxGeometry>
        </mxCell>
        <mxCell id="B7uklT9XOEuCtpNH9jRa-78" value="&lt;font style=&quot;font-size: 9px;&quot;&gt;loginAziendale&lt;/font&gt;" style="ellipse;whiteSpace=wrap;html=1;" parent="B7uklT9XOEuCtpNH9jRa-17" vertex="1">
          <mxGeometry x="462" y="42" width="80" height="20" as="geometry" />
        </mxCell>
        <mxCell id="B7uklT9XOEuCtpNH9jRa-79" value="&lt;font style=&quot;font-size: 9px;&quot;&gt;cambiaPassword&lt;/font&gt;" style="ellipse;whiteSpace=wrap;html=1;" parent="B7uklT9XOEuCtpNH9jRa-17" vertex="1">
          <mxGeometry x="30" y="5" width="130" height="30" as="geometry" />
        </mxCell>
        <mxCell id="B7uklT9XOEuCtpNH9jRa-1" value="&lt;font style=&quot;font-size: 9px;&quot;&gt;registrazioneUtenteCandidato&lt;/font&gt;" style="ellipse;whiteSpace=wrap;html=1;" parent="B7uklT9XOEuCtpNH9jRa-17" vertex="1">
          <mxGeometry x="17" y="44" width="130" height="30" as="geometry" />
        </mxCell>
        <mxCell id="B7uklT9XOEuCtpNH9jRa-84" value="" style="endArrow=none;html=1;rounded=0;fontSize=12;startSize=8;endSize=8;curved=1;exitX=1;exitY=0.5;exitDx=0;exitDy=0;" parent="B7uklT9XOEuCtpNH9jRa-17" edge="1">
          <mxGeometry width="50" height="50" relative="1" as="geometry">
            <mxPoint x="540" y="82.17000000000002" as="sourcePoint" />
            <mxPoint x="590" y="60" as="targetPoint" />
          </mxGeometry>
        </mxCell>
        <mxCell id="B7uklT9XOEuCtpNH9jRa-85" value="" style="endArrow=none;html=1;rounded=0;fontSize=12;startSize=8;endSize=8;curved=1;exitX=1;exitY=0.5;exitDx=0;exitDy=0;" parent="B7uklT9XOEuCtpNH9jRa-17" edge="1">
          <mxGeometry width="50" height="50" relative="1" as="geometry">
            <mxPoint x="530" y="117.17000000000002" as="sourcePoint" />
            <mxPoint x="590" y="60" as="targetPoint" />
          </mxGeometry>
        </mxCell>
        <mxCell id="B7uklT9XOEuCtpNH9jRa-86" value="" style="endArrow=none;html=1;rounded=0;fontSize=12;startSize=8;endSize=8;curved=1;exitX=1;exitY=0.5;exitDx=0;exitDy=0;" parent="B7uklT9XOEuCtpNH9jRa-17" edge="1">
          <mxGeometry width="50" height="50" relative="1" as="geometry">
            <mxPoint x="480" y="220" as="sourcePoint" />
            <mxPoint x="590" y="190" as="targetPoint" />
          </mxGeometry>
        </mxCell>
        <mxCell id="B7uklT9XOEuCtpNH9jRa-91" value="" style="endArrow=none;html=1;rounded=0;fontSize=12;startSize=8;endSize=8;curved=1;exitX=1;exitY=0.5;exitDx=0;exitDy=0;" parent="B7uklT9XOEuCtpNH9jRa-17" edge="1">
          <mxGeometry width="50" height="50" relative="1" as="geometry">
            <mxPoint x="530" y="393" as="sourcePoint" />
            <mxPoint x="590" y="340" as="targetPoint" />
          </mxGeometry>
        </mxCell>
        <mxCell id="B7uklT9XOEuCtpNH9jRa-20" value="" style="endArrow=none;html=1;rounded=0;fontSize=12;startSize=8;endSize=8;curved=1;entryX=0;entryY=0.5;entryDx=0;entryDy=0;" parent="1" target="B7uklT9XOEuCtpNH9jRa-1" edge="1">
          <mxGeometry width="50" height="50" relative="1" as="geometry">
            <mxPoint x="90" y="400" as="sourcePoint" />
            <mxPoint x="140" y="390" as="targetPoint" />
          </mxGeometry>
        </mxCell>
        <mxCell id="B7uklT9XOEuCtpNH9jRa-21" value="" style="endArrow=none;html=1;rounded=0;fontSize=12;startSize=8;endSize=8;curved=1;" parent="1" edge="1">
          <mxGeometry width="50" height="50" relative="1" as="geometry">
            <mxPoint x="110" y="410" as="sourcePoint" />
            <mxPoint x="160" y="370" as="targetPoint" />
          </mxGeometry>
        </mxCell>
        <mxCell id="B7uklT9XOEuCtpNH9jRa-22" value="" style="endArrow=none;html=1;rounded=0;fontSize=12;startSize=8;endSize=8;curved=1;entryX=0.015;entryY=0.417;entryDx=0;entryDy=0;entryPerimeter=0;" parent="1" target="B7uklT9XOEuCtpNH9jRa-17" edge="1">
          <mxGeometry width="50" height="50" relative="1" as="geometry">
            <mxPoint x="110" y="430" as="sourcePoint" />
            <mxPoint x="170" y="390" as="targetPoint" />
          </mxGeometry>
        </mxCell>
        <mxCell id="B7uklT9XOEuCtpNH9jRa-25" value="" style="endArrow=none;html=1;rounded=0;fontSize=12;startSize=8;endSize=8;curved=1;" parent="1" edge="1">
          <mxGeometry width="50" height="50" relative="1" as="geometry">
            <mxPoint x="110" y="440" as="sourcePoint" />
            <mxPoint x="160" y="460" as="targetPoint" />
          </mxGeometry>
        </mxCell>
        <mxCell id="B7uklT9XOEuCtpNH9jRa-27" value="" style="endArrow=none;html=1;rounded=0;fontSize=12;startSize=8;endSize=8;curved=1;" parent="1" edge="1">
          <mxGeometry width="50" height="50" relative="1" as="geometry">
            <mxPoint x="110" y="450" as="sourcePoint" />
            <mxPoint x="170" y="500" as="targetPoint" />
          </mxGeometry>
        </mxCell>
        <mxCell id="B7uklT9XOEuCtpNH9jRa-28" value="" style="endArrow=none;html=1;rounded=0;fontSize=12;startSize=8;endSize=8;curved=1;" parent="1" edge="1">
          <mxGeometry width="50" height="50" relative="1" as="geometry">
            <mxPoint x="100" y="500" as="sourcePoint" />
            <mxPoint x="160" y="550" as="targetPoint" />
          </mxGeometry>
        </mxCell>
        <mxCell id="B7uklT9XOEuCtpNH9jRa-29" value="" style="endArrow=none;html=1;rounded=0;fontSize=12;startSize=8;endSize=8;curved=1;" parent="1" edge="1">
          <mxGeometry width="50" height="50" relative="1" as="geometry">
            <mxPoint x="80" y="500" as="sourcePoint" />
            <mxPoint x="160" y="585" as="targetPoint" />
          </mxGeometry>
        </mxCell>
        <mxCell id="B7uklT9XOEuCtpNH9jRa-30" value="" style="endArrow=none;html=1;rounded=0;fontSize=12;startSize=8;endSize=8;curved=1;" parent="1" edge="1">
          <mxGeometry width="50" height="50" relative="1" as="geometry">
            <mxPoint x="70" y="510" as="sourcePoint" />
            <mxPoint x="160" y="627" as="targetPoint" />
          </mxGeometry>
        </mxCell>
        <mxCell id="B7uklT9XOEuCtpNH9jRa-32" value="" style="endArrow=block;dashed=1;endFill=0;endSize=5;html=1;rounded=0;fontSize=12;curved=1;exitX=0;exitY=0.5;exitDx=0;exitDy=0;entryX=1;entryY=0.5;entryDx=0;entryDy=0;strokeWidth=1;" parent="1" source="B7uklT9XOEuCtpNH9jRa-16" target="B7uklT9XOEuCtpNH9jRa-8" edge="1">
          <mxGeometry width="160" relative="1" as="geometry">
            <mxPoint x="350" y="440" as="sourcePoint" />
            <mxPoint x="190" y="440" as="targetPoint" />
          </mxGeometry>
        </mxCell>
        <mxCell id="B7uklT9XOEuCtpNH9jRa-33" value="&lt;font style=&quot;font-size: 6px;&quot;&gt;&amp;lt;&amp;lt;extend&amp;gt;&amp;gt;&lt;/font&gt;" style="edgeLabel;html=1;align=center;verticalAlign=middle;resizable=0;points=[];fontSize=12;" parent="B7uklT9XOEuCtpNH9jRa-32" vertex="1" connectable="0">
          <mxGeometry x="-0.5167" y="2" relative="1" as="geometry">
            <mxPoint x="-10" y="10" as="offset" />
          </mxGeometry>
        </mxCell>
        <mxCell id="B7uklT9XOEuCtpNH9jRa-42" value="" style="endArrow=block;dashed=1;endFill=0;endSize=5;html=1;rounded=0;fontSize=12;curved=1;entryX=0;entryY=0.5;entryDx=0;entryDy=0;strokeWidth=1;exitX=0.708;exitY=1.029;exitDx=0;exitDy=0;exitPerimeter=0;" parent="1" source="B7uklT9XOEuCtpNH9jRa-4" target="B7uklT9XOEuCtpNH9jRa-7" edge="1">
          <mxGeometry width="160" relative="1" as="geometry">
            <mxPoint x="300" y="370" as="sourcePoint" />
            <mxPoint x="405" y="373" as="targetPoint" />
          </mxGeometry>
        </mxCell>
        <mxCell id="B7uklT9XOEuCtpNH9jRa-43" value="&lt;font style=&quot;font-size: 6px;&quot;&gt;&amp;lt;&amp;lt;include&amp;gt;&amp;gt;&lt;/font&gt;" style="edgeLabel;html=1;align=center;verticalAlign=middle;resizable=0;points=[];fontSize=12;" parent="B7uklT9XOEuCtpNH9jRa-42" vertex="1" connectable="0">
          <mxGeometry x="-0.5167" y="2" relative="1" as="geometry">
            <mxPoint x="29" y="-2" as="offset" />
          </mxGeometry>
        </mxCell>
        <mxCell id="B7uklT9XOEuCtpNH9jRa-38" value="" style="endArrow=block;dashed=1;endFill=0;endSize=5;html=1;rounded=0;fontSize=12;curved=1;entryX=0;entryY=0.5;entryDx=0;entryDy=0;strokeWidth=1;exitX=0.703;exitY=0.023;exitDx=0;exitDy=0;exitPerimeter=0;" parent="1" source="B7uklT9XOEuCtpNH9jRa-4" target="B7uklT9XOEuCtpNH9jRa-5" edge="1">
          <mxGeometry width="160" relative="1" as="geometry">
            <mxPoint x="290" y="370" as="sourcePoint" />
            <mxPoint x="330" y="370" as="targetPoint" />
          </mxGeometry>
        </mxCell>
        <mxCell id="B7uklT9XOEuCtpNH9jRa-39" value="&lt;font style=&quot;font-size: 6px;&quot;&gt;&amp;lt;&amp;lt;include&amp;gt;&amp;gt;&lt;/font&gt;" style="edgeLabel;html=1;align=center;verticalAlign=middle;resizable=0;points=[];fontSize=12;" parent="B7uklT9XOEuCtpNH9jRa-38" vertex="1" connectable="0">
          <mxGeometry x="-0.5167" y="2" relative="1" as="geometry">
            <mxPoint x="8" y="-7" as="offset" />
          </mxGeometry>
        </mxCell>
        <mxCell id="B7uklT9XOEuCtpNH9jRa-45" value="" style="endArrow=block;dashed=1;endFill=0;endSize=5;html=1;rounded=0;fontSize=12;curved=1;strokeWidth=1;exitX=1;exitY=0.5;exitDx=0;exitDy=0;" parent="1" source="B7uklT9XOEuCtpNH9jRa-4" edge="1">
          <mxGeometry width="160" relative="1" as="geometry">
            <mxPoint x="270" y="380" as="sourcePoint" />
            <mxPoint x="330" y="360" as="targetPoint" />
          </mxGeometry>
        </mxCell>
        <mxCell id="B7uklT9XOEuCtpNH9jRa-46" value="&lt;font style=&quot;font-size: 6px;&quot;&gt;&amp;lt;&amp;lt;include&amp;gt;&amp;gt;&lt;/font&gt;" style="edgeLabel;html=1;align=center;verticalAlign=middle;resizable=0;points=[];fontSize=12;" parent="B7uklT9XOEuCtpNH9jRa-45" vertex="1" connectable="0">
          <mxGeometry x="-0.5167" y="2" relative="1" as="geometry">
            <mxPoint x="1" y="-9" as="offset" />
          </mxGeometry>
        </mxCell>
        <mxCell id="B7uklT9XOEuCtpNH9jRa-92" style="edgeStyle=none;curved=1;rounded=0;orthogonalLoop=1;jettySize=auto;html=1;fontSize=12;startSize=8;endSize=8;" parent="1" source="B7uklT9XOEuCtpNH9jRa-48" edge="1">
          <mxGeometry relative="1" as="geometry">
            <mxPoint x="765" y="500" as="targetPoint" />
          </mxGeometry>
        </mxCell>
        <mxCell id="B7uklT9XOEuCtpNH9jRa-48" value="Referente Aziendale" style="shape=umlActor;verticalLabelPosition=bottom;verticalAlign=top;html=1;outlineConnect=0;" parent="1" vertex="1">
          <mxGeometry x="750" y="585" width="30" height="60" as="geometry" />
        </mxCell>
        <mxCell id="B7uklT9XOEuCtpNH9jRa-93" style="edgeStyle=none;curved=1;rounded=0;orthogonalLoop=1;jettySize=auto;html=1;fontSize=12;startSize=8;endSize=8;" parent="1" source="B7uklT9XOEuCtpNH9jRa-49" edge="1">
          <mxGeometry relative="1" as="geometry">
            <mxPoint x="765" y="360" as="targetPoint" />
          </mxGeometry>
        </mxCell>
        <mxCell id="B7uklT9XOEuCtpNH9jRa-49" value="Amministratore&amp;nbsp;&lt;div&gt;Aziendale&lt;/div&gt;" style="shape=umlActor;verticalLabelPosition=bottom;verticalAlign=top;html=1;outlineConnect=0;" parent="1" vertex="1">
          <mxGeometry x="750" y="400" width="30" height="60" as="geometry" />
        </mxCell>
        <mxCell id="B7uklT9XOEuCtpNH9jRa-50" value="Ordinario&lt;div&gt;Aziendale&lt;/div&gt;" style="shape=umlActor;verticalLabelPosition=bottom;verticalAlign=top;html=1;outlineConnect=0;" parent="1" vertex="1">
          <mxGeometry x="750" y="260" width="30" height="60" as="geometry" />
        </mxCell>
        <mxCell id="B7uklT9XOEuCtpNH9jRa-72" value="" style="endArrow=none;html=1;rounded=0;fontSize=12;startSize=8;endSize=8;curved=1;exitX=1;exitY=0.5;exitDx=0;exitDy=0;" parent="1" edge="1">
          <mxGeometry width="50" height="50" relative="1" as="geometry">
            <mxPoint x="680" y="429.91999999999996" as="sourcePoint" />
            <mxPoint x="740" y="450" as="targetPoint" />
          </mxGeometry>
        </mxCell>
        <mxCell id="B7uklT9XOEuCtpNH9jRa-36" value="" style="endArrow=block;dashed=1;endFill=0;endSize=5;html=1;rounded=0;fontSize=12;curved=1;exitX=0.046;exitY=0.349;exitDx=0;exitDy=0;entryX=0.046;entryY=0.349;entryDx=0;entryDy=0;strokeWidth=1;entryPerimeter=0;exitPerimeter=0;" parent="1" source="B7uklT9XOEuCtpNH9jRa-11" edge="1">
          <mxGeometry width="160" relative="1" as="geometry">
            <mxPoint x="330" y="480" as="sourcePoint" />
            <mxPoint x="290" y="480" as="targetPoint" />
          </mxGeometry>
        </mxCell>
        <mxCell id="B7uklT9XOEuCtpNH9jRa-37" value="&lt;font style=&quot;font-size: 6px;&quot;&gt;&amp;lt;&amp;lt;extend&amp;gt;&amp;gt;&lt;/font&gt;" style="edgeLabel;html=1;align=center;verticalAlign=middle;resizable=0;points=[];fontSize=12;" parent="B7uklT9XOEuCtpNH9jRa-36" vertex="1" connectable="0">
          <mxGeometry x="-0.5167" y="2" relative="1" as="geometry">
            <mxPoint x="13" y="-13" as="offset" />
          </mxGeometry>
        </mxCell>
        <mxCell id="B7uklT9XOEuCtpNH9jRa-80" value="" style="endArrow=none;html=1;rounded=0;fontSize=12;startSize=8;endSize=8;curved=1;entryX=0;entryY=0.5;entryDx=0;entryDy=0;" parent="1" target="B7uklT9XOEuCtpNH9jRa-79" edge="1">
          <mxGeometry width="50" height="50" relative="1" as="geometry">
            <mxPoint x="70" y="400" as="sourcePoint" />
            <mxPoint x="140" y="295" as="targetPoint" />
          </mxGeometry>
        </mxCell>
        <mxCell id="B7uklT9XOEuCtpNH9jRa-81" value="" style="endArrow=none;html=1;rounded=0;fontSize=12;startSize=8;endSize=8;curved=1;exitX=1;exitY=0.5;exitDx=0;exitDy=0;" parent="1" source="B7uklT9XOEuCtpNH9jRa-78" edge="1">
          <mxGeometry width="50" height="50" relative="1" as="geometry">
            <mxPoint x="630" y="240" as="sourcePoint" />
            <mxPoint x="740" y="320" as="targetPoint" />
          </mxGeometry>
        </mxCell>
        <mxCell id="B7uklT9XOEuCtpNH9jRa-82" value="" style="endArrow=none;html=1;rounded=0;fontSize=12;startSize=8;endSize=8;curved=1;exitX=1;exitY=0.5;exitDx=0;exitDy=0;" parent="1" source="B7uklT9XOEuCtpNH9jRa-62" edge="1">
          <mxGeometry width="50" height="50" relative="1" as="geometry">
            <mxPoint x="702" y="289.58" as="sourcePoint" />
            <mxPoint x="740" y="320" as="targetPoint" />
          </mxGeometry>
        </mxCell>
        <mxCell id="B7uklT9XOEuCtpNH9jRa-83" value="" style="endArrow=none;html=1;rounded=0;fontSize=12;startSize=8;endSize=8;curved=1;exitX=0.923;exitY=0.167;exitDx=0;exitDy=0;exitPerimeter=0;" parent="1" source="B7uklT9XOEuCtpNH9jRa-79" edge="1">
          <mxGeometry width="50" height="50" relative="1" as="geometry">
            <mxPoint x="690" y="270" as="sourcePoint" />
            <mxPoint x="740" y="265" as="targetPoint" />
          </mxGeometry>
        </mxCell>
        <mxCell id="B7uklT9XOEuCtpNH9jRa-87" value="" style="endArrow=none;html=1;rounded=0;fontSize=12;startSize=8;endSize=8;curved=1;exitX=1;exitY=0.5;exitDx=0;exitDy=0;" parent="1" source="B7uklT9XOEuCtpNH9jRa-55" edge="1">
          <mxGeometry width="50" height="50" relative="1" as="geometry">
            <mxPoint x="680" y="490" as="sourcePoint" />
            <mxPoint x="740" y="450" as="targetPoint" />
          </mxGeometry>
        </mxCell>
        <mxCell id="B7uklT9XOEuCtpNH9jRa-88" value="" style="endArrow=none;html=1;rounded=0;fontSize=12;startSize=8;endSize=8;curved=1;exitX=1;exitY=0.5;exitDx=0;exitDy=0;" parent="1" source="B7uklT9XOEuCtpNH9jRa-51" edge="1">
          <mxGeometry width="50" height="50" relative="1" as="geometry">
            <mxPoint x="710" y="600" as="sourcePoint" />
            <mxPoint x="740" y="600" as="targetPoint" />
          </mxGeometry>
        </mxCell>
        <mxCell id="B7uklT9XOEuCtpNH9jRa-89" value="" style="endArrow=none;html=1;rounded=0;fontSize=12;startSize=8;endSize=8;curved=1;exitX=1;exitY=0.5;exitDx=0;exitDy=0;" parent="1" source="B7uklT9XOEuCtpNH9jRa-52" edge="1">
          <mxGeometry width="50" height="50" relative="1" as="geometry">
            <mxPoint x="730" y="600" as="sourcePoint" />
            <mxPoint x="740" y="600" as="targetPoint" />
          </mxGeometry>
        </mxCell>
        <mxCell id="B7uklT9XOEuCtpNH9jRa-90" value="" style="endArrow=none;html=1;rounded=0;fontSize=12;startSize=8;endSize=8;curved=1;exitX=1;exitY=0.5;exitDx=0;exitDy=0;" parent="1" source="B7uklT9XOEuCtpNH9jRa-53" edge="1">
          <mxGeometry width="50" height="50" relative="1" as="geometry">
            <mxPoint x="740" y="610" as="sourcePoint" />
            <mxPoint x="740" y="600" as="targetPoint" />
          </mxGeometry>
        </mxCell>
      </root>
    </mxGraphModel>
  </diagram>
  <diagram id="NkBCGvh-_LmoA3KxvFQP" name="Pagina-2">
    <mxGraphModel dx="2226" dy="1284" grid="0" gridSize="10" guides="1" tooltips="1" connect="1" arrows="1" fold="1" page="0" pageScale="1" pageWidth="827" pageHeight="1169" math="0" shadow="0">
      <root>
        <mxCell id="0" />
        <mxCell id="1" parent="0" />
        <mxCell id="myrmlAlP4ux7vquSgFjX-23" value="" style="rounded=0;whiteSpace=wrap;html=1;" vertex="1" parent="1">
          <mxGeometry x="-402" y="252" width="1244" height="190" as="geometry" />
        </mxCell>
        <mxCell id="myrmlAlP4ux7vquSgFjX-26" style="edgeStyle=none;curved=1;rounded=0;orthogonalLoop=1;jettySize=auto;html=1;fontSize=12;startSize=8;endSize=8;exitX=1.034;exitY=0.383;exitDx=0;exitDy=0;exitPerimeter=0;" edge="1" parent="1" source="myrmlAlP4ux7vquSgFjX-20">
          <mxGeometry relative="1" as="geometry">
            <mxPoint x="759" y="176" as="targetPoint" />
            <mxPoint x="55" y="176" as="sourcePoint" />
          </mxGeometry>
        </mxCell>
        <mxCell id="myrmlAlP4ux7vquSgFjX-27" value="Controlla Presenza Email" style="edgeLabel;html=1;align=center;verticalAlign=middle;resizable=0;points=[];fontSize=12;" vertex="1" connectable="0" parent="myrmlAlP4ux7vquSgFjX-26">
          <mxGeometry x="0.1402" relative="1" as="geometry">
            <mxPoint x="134" y="-1" as="offset" />
          </mxGeometry>
        </mxCell>
        <mxCell id="myrmlAlP4ux7vquSgFjX-30" value="" style="rounded=0;whiteSpace=wrap;html=1;" vertex="1" parent="1">
          <mxGeometry x="759.5" y="164" width="27" height="79" as="geometry" />
        </mxCell>
        <mxCell id="myrmlAlP4ux7vquSgFjX-28" value="" style="rounded=0;whiteSpace=wrap;html=1;" vertex="1" parent="1">
          <mxGeometry x="411" y="112" width="27" height="102" as="geometry" />
        </mxCell>
        <mxCell id="myrmlAlP4ux7vquSgFjX-1" value="Candidato" style="shape=umlActor;verticalLabelPosition=bottom;verticalAlign=top;html=1;outlineConnect=0;" vertex="1" parent="1">
          <mxGeometry x="-312" y="-142" width="30" height="60" as="geometry" />
        </mxCell>
        <mxCell id="myrmlAlP4ux7vquSgFjX-2" value="Sistema" style="rounded=0;whiteSpace=wrap;html=1;" vertex="1" parent="1">
          <mxGeometry x="364.5" y="-126" width="120" height="60" as="geometry" />
        </mxCell>
        <mxCell id="myrmlAlP4ux7vquSgFjX-3" value="Database" style="rounded=0;whiteSpace=wrap;html=1;" vertex="1" parent="1">
          <mxGeometry x="713" y="-126" width="120" height="60" as="geometry" />
        </mxCell>
        <mxCell id="myrmlAlP4ux7vquSgFjX-5" value="" style="endArrow=none;dashed=1;html=1;rounded=0;fontSize=12;startSize=8;endSize=8;curved=1;" edge="1" parent="1" source="myrmlAlP4ux7vquSgFjX-8">
          <mxGeometry width="50" height="50" relative="1" as="geometry">
            <mxPoint x="-296" y="552" as="sourcePoint" />
            <mxPoint x="-298" y="-52" as="targetPoint" />
          </mxGeometry>
        </mxCell>
        <mxCell id="myrmlAlP4ux7vquSgFjX-6" value="" style="endArrow=none;dashed=1;html=1;rounded=0;fontSize=12;startSize=8;endSize=8;curved=1;" edge="1" parent="1" source="myrmlAlP4ux7vquSgFjX-28">
          <mxGeometry width="50" height="50" relative="1" as="geometry">
            <mxPoint x="422" y="567" as="sourcePoint" />
            <mxPoint x="425" y="-62" as="targetPoint" />
          </mxGeometry>
        </mxCell>
        <mxCell id="myrmlAlP4ux7vquSgFjX-20" value="" style="rounded=0;whiteSpace=wrap;html=1;" vertex="1" parent="1">
          <mxGeometry x="24.5" y="-20" width="27" height="509" as="geometry" />
        </mxCell>
        <mxCell id="myrmlAlP4ux7vquSgFjX-7" value="" style="endArrow=none;dashed=1;html=1;rounded=0;fontSize=12;startSize=8;endSize=8;curved=1;" edge="1" parent="1" source="myrmlAlP4ux7vquSgFjX-30">
          <mxGeometry width="50" height="50" relative="1" as="geometry">
            <mxPoint x="774" y="567" as="sourcePoint" />
            <mxPoint x="772" y="-66" as="targetPoint" />
          </mxGeometry>
        </mxCell>
        <mxCell id="myrmlAlP4ux7vquSgFjX-9" value="" style="endArrow=none;dashed=1;html=1;rounded=0;fontSize=12;startSize=8;endSize=8;curved=1;" edge="1" parent="1" target="myrmlAlP4ux7vquSgFjX-8">
          <mxGeometry width="50" height="50" relative="1" as="geometry">
            <mxPoint x="-296" y="552" as="sourcePoint" />
            <mxPoint x="-298" y="-52" as="targetPoint" />
          </mxGeometry>
        </mxCell>
        <mxCell id="myrmlAlP4ux7vquSgFjX-12" style="edgeStyle=none;curved=1;rounded=0;orthogonalLoop=1;jettySize=auto;html=1;fontSize=12;startSize=8;endSize=8;" edge="1" parent="1">
          <mxGeometry relative="1" as="geometry">
            <mxPoint x="17" y="-3" as="targetPoint" />
            <mxPoint x="-284" y="-3" as="sourcePoint" />
          </mxGeometry>
        </mxCell>
        <mxCell id="myrmlAlP4ux7vquSgFjX-13" value="Seleziona &#39;Registrati&#39;" style="edgeLabel;html=1;align=center;verticalAlign=middle;resizable=0;points=[];fontSize=12;" vertex="1" connectable="0" parent="myrmlAlP4ux7vquSgFjX-12">
          <mxGeometry x="0.1402" relative="1" as="geometry">
            <mxPoint x="-21" as="offset" />
          </mxGeometry>
        </mxCell>
        <mxCell id="myrmlAlP4ux7vquSgFjX-8" value="" style="rounded=0;whiteSpace=wrap;html=1;" vertex="1" parent="1">
          <mxGeometry x="-310" y="-37" width="22" height="160" as="geometry" />
        </mxCell>
        <mxCell id="myrmlAlP4ux7vquSgFjX-10" value="Pagina Web" style="rounded=0;whiteSpace=wrap;html=1;" vertex="1" parent="1">
          <mxGeometry x="-22" y="-126" width="120" height="60" as="geometry" />
        </mxCell>
        <mxCell id="myrmlAlP4ux7vquSgFjX-11" value="" style="endArrow=none;dashed=1;html=1;rounded=0;fontSize=12;startSize=8;endSize=8;curved=1;" edge="1" parent="1" source="myrmlAlP4ux7vquSgFjX-20">
          <mxGeometry width="50" height="50" relative="1" as="geometry">
            <mxPoint x="39" y="567" as="sourcePoint" />
            <mxPoint x="37" y="-66" as="targetPoint" />
          </mxGeometry>
        </mxCell>
        <mxCell id="myrmlAlP4ux7vquSgFjX-16" style="edgeStyle=none;curved=1;rounded=0;orthogonalLoop=1;jettySize=auto;html=1;fontSize=12;dashed=1;endArrow=open;endFill=0;" edge="1" parent="1">
          <mxGeometry relative="1" as="geometry">
            <mxPoint x="-279" y="54" as="targetPoint" />
            <mxPoint x="25" y="54" as="sourcePoint" />
          </mxGeometry>
        </mxCell>
        <mxCell id="myrmlAlP4ux7vquSgFjX-17" value="Mostra Form di Registrazione" style="edgeLabel;html=1;align=center;verticalAlign=middle;resizable=0;points=[];fontSize=12;" vertex="1" connectable="0" parent="myrmlAlP4ux7vquSgFjX-16">
          <mxGeometry x="0.1402" relative="1" as="geometry">
            <mxPoint x="16" y="-1" as="offset" />
          </mxGeometry>
        </mxCell>
        <mxCell id="myrmlAlP4ux7vquSgFjX-18" style="edgeStyle=none;curved=1;rounded=0;orthogonalLoop=1;jettySize=auto;html=1;fontSize=12;startSize=8;endSize=8;" edge="1" parent="1">
          <mxGeometry relative="1" as="geometry">
            <mxPoint x="20" y="111" as="targetPoint" />
            <mxPoint x="-282" y="111" as="sourcePoint" />
          </mxGeometry>
        </mxCell>
        <mxCell id="myrmlAlP4ux7vquSgFjX-19" value="Inserisci Dati Anagrafici&lt;div&gt;Inserisce Credenziali&lt;/div&gt;" style="edgeLabel;html=1;align=center;verticalAlign=middle;resizable=0;points=[];fontSize=12;" vertex="1" connectable="0" parent="myrmlAlP4ux7vquSgFjX-18">
          <mxGeometry x="0.1402" relative="1" as="geometry">
            <mxPoint x="-26" y="-1" as="offset" />
          </mxGeometry>
        </mxCell>
        <mxCell id="myrmlAlP4ux7vquSgFjX-21" value="" style="endArrow=none;dashed=1;html=1;rounded=0;fontSize=12;startSize=8;endSize=8;curved=1;" edge="1" parent="1" target="myrmlAlP4ux7vquSgFjX-20">
          <mxGeometry width="50" height="50" relative="1" as="geometry">
            <mxPoint x="39" y="567" as="sourcePoint" />
            <mxPoint x="37" y="-66" as="targetPoint" />
          </mxGeometry>
        </mxCell>
        <mxCell id="myrmlAlP4ux7vquSgFjX-24" style="edgeStyle=none;curved=1;rounded=0;orthogonalLoop=1;jettySize=auto;html=1;fontSize=12;startSize=8;endSize=8;" edge="1" parent="1">
          <mxGeometry relative="1" as="geometry">
            <mxPoint x="407" y="150" as="targetPoint" />
            <mxPoint x="53" y="150" as="sourcePoint" />
          </mxGeometry>
        </mxCell>
        <mxCell id="myrmlAlP4ux7vquSgFjX-25" value="Controlla Sicurezza Password" style="edgeLabel;html=1;align=center;verticalAlign=middle;resizable=0;points=[];fontSize=12;" vertex="1" connectable="0" parent="myrmlAlP4ux7vquSgFjX-24">
          <mxGeometry x="0.1402" relative="1" as="geometry">
            <mxPoint x="-35" y="-1" as="offset" />
          </mxGeometry>
        </mxCell>
        <mxCell id="myrmlAlP4ux7vquSgFjX-29" value="" style="endArrow=none;dashed=1;html=1;rounded=0;fontSize=12;startSize=8;endSize=8;curved=1;" edge="1" parent="1" target="myrmlAlP4ux7vquSgFjX-28">
          <mxGeometry width="50" height="50" relative="1" as="geometry">
            <mxPoint x="422" y="567" as="sourcePoint" />
            <mxPoint x="420" y="-66" as="targetPoint" />
          </mxGeometry>
        </mxCell>
        <mxCell id="myrmlAlP4ux7vquSgFjX-31" value="" style="endArrow=none;dashed=1;html=1;rounded=0;fontSize=12;startSize=8;endSize=8;curved=1;" edge="1" parent="1" source="myrmlAlP4ux7vquSgFjX-43" target="myrmlAlP4ux7vquSgFjX-30">
          <mxGeometry width="50" height="50" relative="1" as="geometry">
            <mxPoint x="774" y="567" as="sourcePoint" />
            <mxPoint x="772" y="-66" as="targetPoint" />
          </mxGeometry>
        </mxCell>
        <mxCell id="myrmlAlP4ux7vquSgFjX-32" style="edgeStyle=none;curved=1;rounded=0;orthogonalLoop=1;jettySize=auto;html=1;fontSize=12;dashed=1;endArrow=open;endFill=0;" edge="1" parent="1">
          <mxGeometry relative="1" as="geometry">
            <mxPoint x="56" y="199" as="targetPoint" />
            <mxPoint x="407" y="199" as="sourcePoint" />
          </mxGeometry>
        </mxCell>
        <mxCell id="myrmlAlP4ux7vquSgFjX-33" value="Risultato sicurezza password" style="edgeLabel;html=1;align=center;verticalAlign=middle;resizable=0;points=[];fontSize=12;" vertex="1" connectable="0" parent="myrmlAlP4ux7vquSgFjX-32">
          <mxGeometry x="0.1402" relative="1" as="geometry">
            <mxPoint x="16" y="-1" as="offset" />
          </mxGeometry>
        </mxCell>
        <mxCell id="myrmlAlP4ux7vquSgFjX-34" style="edgeStyle=none;curved=1;rounded=0;orthogonalLoop=1;jettySize=auto;html=1;fontSize=12;dashed=1;endArrow=open;endFill=0;" edge="1" parent="1">
          <mxGeometry relative="1" as="geometry">
            <mxPoint x="61" y="227" as="targetPoint" />
            <mxPoint x="759.5" y="227" as="sourcePoint" />
          </mxGeometry>
        </mxCell>
        <mxCell id="myrmlAlP4ux7vquSgFjX-35" value="Risultato presenza email" style="edgeLabel;html=1;align=center;verticalAlign=middle;resizable=0;points=[];fontSize=12;" vertex="1" connectable="0" parent="myrmlAlP4ux7vquSgFjX-34">
          <mxGeometry x="0.1402" relative="1" as="geometry">
            <mxPoint x="-143" y="-1" as="offset" />
          </mxGeometry>
        </mxCell>
        <mxCell id="myrmlAlP4ux7vquSgFjX-36" value="alt" style="rounded=0;whiteSpace=wrap;html=1;" vertex="1" parent="1">
          <mxGeometry x="-402" y="252" width="31" height="19" as="geometry" />
        </mxCell>
        <mxCell id="myrmlAlP4ux7vquSgFjX-38" value="&lt;font&gt;[Email già presente&amp;nbsp;&lt;/font&gt;&lt;div&gt;&lt;font&gt;o password non sicura]&lt;/font&gt;&lt;/div&gt;" style="text;html=1;align=center;verticalAlign=middle;resizable=0;points=[];autosize=1;strokeColor=none;fillColor=none;fontSize=7;" vertex="1" parent="1">
          <mxGeometry x="-400" y="350" width="90" height="28" as="geometry" />
        </mxCell>
        <mxCell id="myrmlAlP4ux7vquSgFjX-43" value="" style="rounded=0;whiteSpace=wrap;html=1;" vertex="1" parent="1">
          <mxGeometry x="759.5" y="274" width="27" height="35" as="geometry" />
        </mxCell>
        <mxCell id="myrmlAlP4ux7vquSgFjX-39" style="edgeStyle=none;curved=1;rounded=0;orthogonalLoop=1;jettySize=auto;html=1;fontSize=12;startSize=8;endSize=8;" edge="1" parent="1">
          <mxGeometry relative="1" as="geometry">
            <mxPoint x="758" y="298" as="targetPoint" />
            <mxPoint x="424" y="301" as="sourcePoint" />
          </mxGeometry>
        </mxCell>
        <mxCell id="myrmlAlP4ux7vquSgFjX-40" value="Registrati(Email,Password,Nome,Cognome,&lt;div&gt;Citta,Provincia,Nazione&lt;/div&gt;" style="edgeLabel;html=1;align=center;verticalAlign=middle;resizable=0;points=[];fontSize=12;" vertex="1" connectable="0" parent="myrmlAlP4ux7vquSgFjX-39">
          <mxGeometry x="0.1402" relative="1" as="geometry">
            <mxPoint x="-23" as="offset" />
          </mxGeometry>
        </mxCell>
        <mxCell id="myrmlAlP4ux7vquSgFjX-41" value="&lt;font&gt;[Email non presente&amp;nbsp;&lt;/font&gt;&lt;div&gt;&lt;font&gt;e password sicura]&lt;/font&gt;&lt;/div&gt;" style="text;html=1;align=center;verticalAlign=middle;resizable=0;points=[];autosize=1;strokeColor=none;fillColor=none;fontSize=7;" vertex="1" parent="1">
          <mxGeometry x="-398" y="271" width="82" height="28" as="geometry" />
        </mxCell>
        <mxCell id="myrmlAlP4ux7vquSgFjX-42" value="" style="endArrow=none;dashed=1;html=1;dashPattern=1 3;strokeWidth=2;rounded=0;fontSize=12;startSize=8;endSize=8;curved=1;" edge="1" parent="1">
          <mxGeometry width="50" height="50" relative="1" as="geometry">
            <mxPoint x="-495" y="340" as="sourcePoint" />
            <mxPoint x="990" y="335" as="targetPoint" />
          </mxGeometry>
        </mxCell>
        <mxCell id="myrmlAlP4ux7vquSgFjX-44" value="" style="endArrow=none;dashed=1;html=1;rounded=0;fontSize=12;startSize=8;endSize=8;curved=1;" edge="1" parent="1" target="myrmlAlP4ux7vquSgFjX-43">
          <mxGeometry width="50" height="50" relative="1" as="geometry">
            <mxPoint x="774" y="567" as="sourcePoint" />
            <mxPoint x="773" y="243" as="targetPoint" />
          </mxGeometry>
        </mxCell>
        <mxCell id="myrmlAlP4ux7vquSgFjX-47" style="edgeStyle=none;curved=1;rounded=0;orthogonalLoop=1;jettySize=auto;html=1;fontSize=12;startSize=8;endSize=8;" edge="1" parent="1">
          <mxGeometry relative="1" as="geometry">
            <mxPoint x="418" y="274" as="targetPoint" />
            <mxPoint x="57" y="274" as="sourcePoint" />
          </mxGeometry>
        </mxCell>
        <mxCell id="myrmlAlP4ux7vquSgFjX-48" value="Fornisci Dati Anagrafici e Credenziali" style="edgeLabel;html=1;align=center;verticalAlign=middle;resizable=0;points=[];fontSize=12;" vertex="1" connectable="0" parent="myrmlAlP4ux7vquSgFjX-47">
          <mxGeometry x="0.1402" relative="1" as="geometry">
            <mxPoint x="-35" y="-1" as="offset" />
          </mxGeometry>
        </mxCell>
        <mxCell id="myrmlAlP4ux7vquSgFjX-52" style="edgeStyle=none;curved=1;rounded=0;orthogonalLoop=1;jettySize=auto;html=1;fontSize=12;dashed=1;endArrow=open;endFill=0;" edge="1" parent="1">
          <mxGeometry relative="1" as="geometry">
            <mxPoint x="-299" y="394" as="targetPoint" />
            <mxPoint x="24.5" y="394" as="sourcePoint" />
          </mxGeometry>
        </mxCell>
        <mxCell id="myrmlAlP4ux7vquSgFjX-53" value="Mostra Messaggio di Errore" style="edgeLabel;html=1;align=center;verticalAlign=middle;resizable=0;points=[];fontSize=12;" vertex="1" connectable="0" parent="myrmlAlP4ux7vquSgFjX-52">
          <mxGeometry x="0.1402" relative="1" as="geometry">
            <mxPoint x="16" y="-1" as="offset" />
          </mxGeometry>
        </mxCell>
      </root>
    </mxGraphModel>
  </diagram>
  <diagram id="3n_s_w7vxWahbAeWh09v" name="Pagina-3">
    <mxGraphModel dx="1157" dy="1700" grid="0" gridSize="10" guides="1" tooltips="1" connect="1" arrows="1" fold="1" page="0" pageScale="1" pageWidth="827" pageHeight="1169" math="0" shadow="0">
      <root>
        <mxCell id="0" />
        <mxCell id="1" parent="0" />
        <mxCell id="2RvfjeE9kZhI8U0eivfp-1" value="c" style="rounded=0;whiteSpace=wrap;html=1;" parent="1" vertex="1">
          <mxGeometry x="294" y="497" width="1244" height="190" as="geometry" />
        </mxCell>
        <mxCell id="2RvfjeE9kZhI8U0eivfp-2" style="edgeStyle=none;curved=1;rounded=0;orthogonalLoop=1;jettySize=auto;html=1;fontSize=12;startSize=8;endSize=8;" parent="1" edge="1">
          <mxGeometry relative="1" as="geometry">
            <mxPoint x="1455.5" y="416" as="targetPoint" />
            <mxPoint x="751.5" y="416" as="sourcePoint" />
          </mxGeometry>
        </mxCell>
        <mxCell id="2RvfjeE9kZhI8U0eivfp-3" value="Controlla Presenza Email" style="edgeLabel;html=1;align=center;verticalAlign=middle;resizable=0;points=[];fontSize=12;" parent="2RvfjeE9kZhI8U0eivfp-2" vertex="1" connectable="0">
          <mxGeometry x="0.1402" relative="1" as="geometry">
            <mxPoint x="134" y="-1" as="offset" />
          </mxGeometry>
        </mxCell>
        <mxCell id="2RvfjeE9kZhI8U0eivfp-4" value="" style="rounded=0;whiteSpace=wrap;html=1;" parent="1" vertex="1">
          <mxGeometry x="1455.5" y="409" width="27" height="79" as="geometry" />
        </mxCell>
        <mxCell id="2RvfjeE9kZhI8U0eivfp-5" value="" style="rounded=0;whiteSpace=wrap;html=1;" parent="1" vertex="1">
          <mxGeometry x="1107" y="357" width="27" height="102" as="geometry" />
        </mxCell>
        <mxCell id="2RvfjeE9kZhI8U0eivfp-6" value="Referente Aziendale" style="shape=umlActor;verticalLabelPosition=bottom;verticalAlign=top;html=1;outlineConnect=0;" parent="1" vertex="1">
          <mxGeometry x="384" y="103" width="30" height="60" as="geometry" />
        </mxCell>
        <mxCell id="2RvfjeE9kZhI8U0eivfp-7" value="Sistema" style="rounded=0;whiteSpace=wrap;html=1;" parent="1" vertex="1">
          <mxGeometry x="1060.5" y="119" width="120" height="60" as="geometry" />
        </mxCell>
        <mxCell id="2RvfjeE9kZhI8U0eivfp-8" value="Database" style="rounded=0;whiteSpace=wrap;html=1;" parent="1" vertex="1">
          <mxGeometry x="1409" y="119" width="120" height="60" as="geometry" />
        </mxCell>
        <mxCell id="2RvfjeE9kZhI8U0eivfp-9" value="" style="endArrow=none;dashed=1;html=1;rounded=0;fontSize=12;startSize=8;endSize=8;curved=1;" parent="1" source="2RvfjeE9kZhI8U0eivfp-16" edge="1">
          <mxGeometry width="50" height="50" relative="1" as="geometry">
            <mxPoint x="400" y="797" as="sourcePoint" />
            <mxPoint x="398" y="193" as="targetPoint" />
          </mxGeometry>
        </mxCell>
        <mxCell id="2RvfjeE9kZhI8U0eivfp-10" value="" style="endArrow=none;dashed=1;html=1;rounded=0;fontSize=12;startSize=8;endSize=8;curved=1;" parent="1" source="2RvfjeE9kZhI8U0eivfp-5" edge="1">
          <mxGeometry width="50" height="50" relative="1" as="geometry">
            <mxPoint x="1118" y="812" as="sourcePoint" />
            <mxPoint x="1121" y="183" as="targetPoint" />
          </mxGeometry>
        </mxCell>
        <mxCell id="2RvfjeE9kZhI8U0eivfp-11" value="" style="rounded=0;whiteSpace=wrap;html=1;" parent="1" vertex="1">
          <mxGeometry x="720.5" y="225" width="27" height="509" as="geometry" />
        </mxCell>
        <mxCell id="2RvfjeE9kZhI8U0eivfp-12" value="" style="endArrow=none;dashed=1;html=1;rounded=0;fontSize=12;startSize=8;endSize=8;curved=1;" parent="1" source="2RvfjeE9kZhI8U0eivfp-4" edge="1">
          <mxGeometry width="50" height="50" relative="1" as="geometry">
            <mxPoint x="1470" y="812" as="sourcePoint" />
            <mxPoint x="1468" y="179" as="targetPoint" />
          </mxGeometry>
        </mxCell>
        <mxCell id="2RvfjeE9kZhI8U0eivfp-13" value="" style="endArrow=none;dashed=1;html=1;rounded=0;fontSize=12;startSize=8;endSize=8;curved=1;" parent="1" target="2RvfjeE9kZhI8U0eivfp-16" edge="1">
          <mxGeometry width="50" height="50" relative="1" as="geometry">
            <mxPoint x="400" y="797" as="sourcePoint" />
            <mxPoint x="398" y="193" as="targetPoint" />
          </mxGeometry>
        </mxCell>
        <mxCell id="2RvfjeE9kZhI8U0eivfp-14" style="edgeStyle=none;curved=1;rounded=0;orthogonalLoop=1;jettySize=auto;html=1;fontSize=12;startSize=8;endSize=8;" parent="1" edge="1">
          <mxGeometry relative="1" as="geometry">
            <mxPoint x="713" y="242" as="targetPoint" />
            <mxPoint x="412" y="242" as="sourcePoint" />
          </mxGeometry>
        </mxCell>
        <mxCell id="2RvfjeE9kZhI8U0eivfp-15" value="Seleziona &#39;Registra Azienda&#39;" style="edgeLabel;html=1;align=center;verticalAlign=middle;resizable=0;points=[];fontSize=12;" parent="2RvfjeE9kZhI8U0eivfp-14" vertex="1" connectable="0">
          <mxGeometry x="0.1402" relative="1" as="geometry">
            <mxPoint x="-21" as="offset" />
          </mxGeometry>
        </mxCell>
        <mxCell id="2RvfjeE9kZhI8U0eivfp-16" value="" style="rounded=0;whiteSpace=wrap;html=1;" parent="1" vertex="1">
          <mxGeometry x="386" y="208" width="22" height="160" as="geometry" />
        </mxCell>
        <mxCell id="2RvfjeE9kZhI8U0eivfp-17" value="Pagina Web" style="rounded=0;whiteSpace=wrap;html=1;" parent="1" vertex="1">
          <mxGeometry x="674" y="119" width="120" height="60" as="geometry" />
        </mxCell>
        <mxCell id="2RvfjeE9kZhI8U0eivfp-18" value="" style="endArrow=none;dashed=1;html=1;rounded=0;fontSize=12;startSize=8;endSize=8;curved=1;" parent="1" source="2RvfjeE9kZhI8U0eivfp-11" edge="1">
          <mxGeometry width="50" height="50" relative="1" as="geometry">
            <mxPoint x="735" y="812" as="sourcePoint" />
            <mxPoint x="733" y="179" as="targetPoint" />
          </mxGeometry>
        </mxCell>
        <mxCell id="2RvfjeE9kZhI8U0eivfp-19" style="edgeStyle=none;curved=1;rounded=0;orthogonalLoop=1;jettySize=auto;html=1;fontSize=12;dashed=1;endArrow=open;endFill=0;" parent="1" edge="1">
          <mxGeometry relative="1" as="geometry">
            <mxPoint x="417" y="299" as="targetPoint" />
            <mxPoint x="721" y="299" as="sourcePoint" />
          </mxGeometry>
        </mxCell>
        <mxCell id="2RvfjeE9kZhI8U0eivfp-20" value="Mostra Form di Registrazione" style="edgeLabel;html=1;align=center;verticalAlign=middle;resizable=0;points=[];fontSize=12;" parent="2RvfjeE9kZhI8U0eivfp-19" vertex="1" connectable="0">
          <mxGeometry x="0.1402" relative="1" as="geometry">
            <mxPoint x="16" y="-1" as="offset" />
          </mxGeometry>
        </mxCell>
        <mxCell id="2RvfjeE9kZhI8U0eivfp-21" style="edgeStyle=none;curved=1;rounded=0;orthogonalLoop=1;jettySize=auto;html=1;fontSize=12;startSize=8;endSize=8;" parent="1" edge="1">
          <mxGeometry relative="1" as="geometry">
            <mxPoint x="716" y="356" as="targetPoint" />
            <mxPoint x="414" y="356" as="sourcePoint" />
          </mxGeometry>
        </mxCell>
        <mxCell id="2RvfjeE9kZhI8U0eivfp-22" value="Inserisci Dati Azienda&lt;div&gt;Inserisci Dati Referente&lt;br&gt;&lt;div&gt;Inserisce Credenziali Referente&lt;/div&gt;&lt;/div&gt;" style="edgeLabel;html=1;align=center;verticalAlign=middle;resizable=0;points=[];fontSize=12;" parent="2RvfjeE9kZhI8U0eivfp-21" vertex="1" connectable="0">
          <mxGeometry x="0.1402" relative="1" as="geometry">
            <mxPoint x="-26" y="-1" as="offset" />
          </mxGeometry>
        </mxCell>
        <mxCell id="2RvfjeE9kZhI8U0eivfp-23" value="" style="endArrow=none;dashed=1;html=1;rounded=0;fontSize=12;startSize=8;endSize=8;curved=1;" parent="1" target="2RvfjeE9kZhI8U0eivfp-11" edge="1">
          <mxGeometry width="50" height="50" relative="1" as="geometry">
            <mxPoint x="735" y="812" as="sourcePoint" />
            <mxPoint x="733" y="179" as="targetPoint" />
          </mxGeometry>
        </mxCell>
        <mxCell id="2RvfjeE9kZhI8U0eivfp-24" style="edgeStyle=none;curved=1;rounded=0;orthogonalLoop=1;jettySize=auto;html=1;fontSize=12;startSize=8;endSize=8;" parent="1" edge="1">
          <mxGeometry relative="1" as="geometry">
            <mxPoint x="1103" y="395" as="targetPoint" />
            <mxPoint x="745" y="395" as="sourcePoint" />
          </mxGeometry>
        </mxCell>
        <mxCell id="2RvfjeE9kZhI8U0eivfp-25" value="Controlla Sicurezza Password" style="edgeLabel;html=1;align=center;verticalAlign=middle;resizable=0;points=[];fontSize=12;" parent="2RvfjeE9kZhI8U0eivfp-24" vertex="1" connectable="0">
          <mxGeometry x="0.1402" relative="1" as="geometry">
            <mxPoint x="-35" y="-1" as="offset" />
          </mxGeometry>
        </mxCell>
        <mxCell id="2RvfjeE9kZhI8U0eivfp-26" value="" style="endArrow=none;dashed=1;html=1;rounded=0;fontSize=12;startSize=8;endSize=8;curved=1;" parent="1" target="2RvfjeE9kZhI8U0eivfp-5" edge="1">
          <mxGeometry width="50" height="50" relative="1" as="geometry">
            <mxPoint x="1118" y="812" as="sourcePoint" />
            <mxPoint x="1116" y="179" as="targetPoint" />
          </mxGeometry>
        </mxCell>
        <mxCell id="2RvfjeE9kZhI8U0eivfp-27" value="" style="endArrow=none;dashed=1;html=1;rounded=0;fontSize=12;startSize=8;endSize=8;curved=1;" parent="1" source="2RvfjeE9kZhI8U0eivfp-34" target="2RvfjeE9kZhI8U0eivfp-4" edge="1">
          <mxGeometry width="50" height="50" relative="1" as="geometry">
            <mxPoint x="1470" y="812" as="sourcePoint" />
            <mxPoint x="1468" y="179" as="targetPoint" />
          </mxGeometry>
        </mxCell>
        <mxCell id="2RvfjeE9kZhI8U0eivfp-28" style="edgeStyle=none;curved=1;rounded=0;orthogonalLoop=1;jettySize=auto;html=1;fontSize=12;dashed=1;endArrow=open;endFill=0;" parent="1" edge="1">
          <mxGeometry relative="1" as="geometry">
            <mxPoint x="752" y="444" as="targetPoint" />
            <mxPoint x="1103" y="444" as="sourcePoint" />
          </mxGeometry>
        </mxCell>
        <mxCell id="2RvfjeE9kZhI8U0eivfp-29" value="Risultato sicurezza password" style="edgeLabel;html=1;align=center;verticalAlign=middle;resizable=0;points=[];fontSize=12;" parent="2RvfjeE9kZhI8U0eivfp-28" vertex="1" connectable="0">
          <mxGeometry x="0.1402" relative="1" as="geometry">
            <mxPoint x="16" y="-1" as="offset" />
          </mxGeometry>
        </mxCell>
        <mxCell id="2RvfjeE9kZhI8U0eivfp-30" style="edgeStyle=none;curved=1;rounded=0;orthogonalLoop=1;jettySize=auto;html=1;fontSize=12;dashed=1;endArrow=open;endFill=0;" parent="1" edge="1">
          <mxGeometry relative="1" as="geometry">
            <mxPoint x="757" y="472" as="targetPoint" />
            <mxPoint x="1455.5" y="472" as="sourcePoint" />
          </mxGeometry>
        </mxCell>
        <mxCell id="2RvfjeE9kZhI8U0eivfp-31" value="Risultato presenza email e partita iva" style="edgeLabel;html=1;align=center;verticalAlign=middle;resizable=0;points=[];fontSize=12;" parent="2RvfjeE9kZhI8U0eivfp-30" vertex="1" connectable="0">
          <mxGeometry x="0.1402" relative="1" as="geometry">
            <mxPoint x="-143" y="-1" as="offset" />
          </mxGeometry>
        </mxCell>
        <mxCell id="2RvfjeE9kZhI8U0eivfp-32" value="alt" style="rounded=0;whiteSpace=wrap;html=1;" parent="1" vertex="1">
          <mxGeometry x="294" y="497" width="31" height="19" as="geometry" />
        </mxCell>
        <mxCell id="2RvfjeE9kZhI8U0eivfp-33" value="&lt;font&gt;[Email già presente&amp;nbsp;&lt;/font&gt;&lt;div&gt;&lt;font&gt;o password non sicura o&lt;/font&gt;&lt;/div&gt;&lt;div&gt;&lt;font&gt;PartitaIva già presente]&lt;/font&gt;&lt;/div&gt;" style="text;html=1;align=center;verticalAlign=middle;resizable=0;points=[];autosize=1;strokeColor=none;fillColor=none;fontSize=7;" parent="1" vertex="1">
          <mxGeometry x="294" y="591" width="94" height="36" as="geometry" />
        </mxCell>
        <mxCell id="2RvfjeE9kZhI8U0eivfp-34" value="" style="rounded=0;whiteSpace=wrap;html=1;" parent="1" vertex="1">
          <mxGeometry x="1455.5" y="519" width="27" height="35" as="geometry" />
        </mxCell>
        <mxCell id="2RvfjeE9kZhI8U0eivfp-35" style="edgeStyle=none;curved=1;rounded=0;orthogonalLoop=1;jettySize=auto;html=1;fontSize=12;startSize=8;endSize=8;" parent="1" edge="1">
          <mxGeometry relative="1" as="geometry">
            <mxPoint x="1454" y="543" as="targetPoint" />
            <mxPoint x="1120" y="546" as="sourcePoint" />
          </mxGeometry>
        </mxCell>
        <mxCell id="2RvfjeE9kZhI8U0eivfp-36" value="RegistraAzienda(EmailReferente,Password,&lt;div&gt;NomeReferente,Cognome,&lt;div&gt;Citta,Provincia,Nazione, NomeAzienda, PartitaIva)&lt;/div&gt;&lt;/div&gt;" style="edgeLabel;html=1;align=center;verticalAlign=middle;resizable=0;points=[];fontSize=12;" parent="2RvfjeE9kZhI8U0eivfp-35" vertex="1" connectable="0">
          <mxGeometry x="0.1402" relative="1" as="geometry">
            <mxPoint x="-35" y="-1" as="offset" />
          </mxGeometry>
        </mxCell>
        <mxCell id="2RvfjeE9kZhI8U0eivfp-37" value="&lt;font&gt;[Email non presente&amp;nbsp;&lt;/font&gt;&lt;div&gt;&lt;font&gt;e password sicura e PartitaIva&lt;/font&gt;&lt;/div&gt;&lt;div&gt;&lt;font&gt;non presente]&lt;/font&gt;&lt;/div&gt;" style="text;html=1;align=center;verticalAlign=middle;resizable=0;points=[];autosize=1;strokeColor=none;fillColor=none;fontSize=7;" parent="1" vertex="1">
          <mxGeometry x="291" y="513" width="112" height="36" as="geometry" />
        </mxCell>
        <mxCell id="2RvfjeE9kZhI8U0eivfp-38" value="" style="endArrow=none;dashed=1;html=1;dashPattern=1 3;strokeWidth=2;rounded=0;fontSize=12;startSize=8;endSize=8;curved=1;" parent="1" edge="1">
          <mxGeometry width="50" height="50" relative="1" as="geometry">
            <mxPoint x="201" y="585" as="sourcePoint" />
            <mxPoint x="1686" y="580" as="targetPoint" />
          </mxGeometry>
        </mxCell>
        <mxCell id="2RvfjeE9kZhI8U0eivfp-39" value="" style="endArrow=none;dashed=1;html=1;rounded=0;fontSize=12;startSize=8;endSize=8;curved=1;" parent="1" target="2RvfjeE9kZhI8U0eivfp-34" edge="1">
          <mxGeometry width="50" height="50" relative="1" as="geometry">
            <mxPoint x="1470" y="812" as="sourcePoint" />
            <mxPoint x="1469" y="488" as="targetPoint" />
          </mxGeometry>
        </mxCell>
        <mxCell id="2RvfjeE9kZhI8U0eivfp-40" style="edgeStyle=none;curved=1;rounded=0;orthogonalLoop=1;jettySize=auto;html=1;fontSize=12;startSize=8;endSize=8;" parent="1" edge="1">
          <mxGeometry relative="1" as="geometry">
            <mxPoint x="1114" y="519" as="targetPoint" />
            <mxPoint x="753" y="519" as="sourcePoint" />
          </mxGeometry>
        </mxCell>
        <mxCell id="2RvfjeE9kZhI8U0eivfp-41" value="Fornisci Dati Azienda, Dati Referente e Credenziali" style="edgeLabel;html=1;align=center;verticalAlign=middle;resizable=0;points=[];fontSize=12;" parent="2RvfjeE9kZhI8U0eivfp-40" vertex="1" connectable="0">
          <mxGeometry x="0.1402" relative="1" as="geometry">
            <mxPoint x="-32" as="offset" />
          </mxGeometry>
        </mxCell>
        <mxCell id="2RvfjeE9kZhI8U0eivfp-43" style="edgeStyle=none;curved=1;rounded=0;orthogonalLoop=1;jettySize=auto;html=1;fontSize=12;dashed=1;endArrow=open;endFill=0;" parent="1" edge="1">
          <mxGeometry relative="1" as="geometry">
            <mxPoint x="397" y="639" as="targetPoint" />
            <mxPoint x="720.5" y="639" as="sourcePoint" />
          </mxGeometry>
        </mxCell>
        <mxCell id="2RvfjeE9kZhI8U0eivfp-44" value="Mostra Messaggio di Errore" style="edgeLabel;html=1;align=center;verticalAlign=middle;resizable=0;points=[];fontSize=12;" parent="2RvfjeE9kZhI8U0eivfp-43" vertex="1" connectable="0">
          <mxGeometry x="0.1402" relative="1" as="geometry">
            <mxPoint x="16" y="-1" as="offset" />
          </mxGeometry>
        </mxCell>
        <mxCell id="QZJF4GRbRFGF1CEuYk9v-1" style="edgeStyle=none;curved=1;rounded=0;orthogonalLoop=1;jettySize=auto;html=1;fontSize=12;startSize=8;endSize=8;" parent="1" edge="1">
          <mxGeometry relative="1" as="geometry">
            <mxPoint x="1455.5" y="429" as="targetPoint" />
            <mxPoint x="751.5" y="429" as="sourcePoint" />
          </mxGeometry>
        </mxCell>
        <mxCell id="QZJF4GRbRFGF1CEuYk9v-2" value="Controlla Presenza Partita Iva" style="edgeLabel;html=1;align=center;verticalAlign=middle;resizable=0;points=[];fontSize=12;" parent="QZJF4GRbRFGF1CEuYk9v-1" vertex="1" connectable="0">
          <mxGeometry x="0.1402" relative="1" as="geometry">
            <mxPoint x="134" y="-1" as="offset" />
          </mxGeometry>
        </mxCell>
        <mxCell id="Wkly30RvaokNhmzQmehL-1" value="2" style="text;html=1;align=center;verticalAlign=middle;resizable=0;points=[];autosize=1;strokeColor=none;fillColor=none;fontSize=16;" vertex="1" parent="1">
          <mxGeometry x="325.5" y="-6.5" width="27" height="31" as="geometry" />
        </mxCell>
      </root>
    </mxGraphModel>
  </diagram>
  <diagram id="qXmUrbiFnoGS79Mwn15k" name="Pagina-4">
    <mxGraphModel dx="1094" dy="780" grid="0" gridSize="10" guides="1" tooltips="1" connect="1" arrows="1" fold="1" page="0" pageScale="1" pageWidth="827" pageHeight="1169" math="0" shadow="0">
      <root>
        <mxCell id="0" />
        <mxCell id="1" parent="0" />
        <mxCell id="WGj3g64T1ybm-_4HWVq7-5" value="" style="rounded=0;whiteSpace=wrap;html=1;" parent="1" vertex="1">
          <mxGeometry x="986" y="264" width="27" height="79" as="geometry" />
        </mxCell>
        <mxCell id="rz9Mc_KAGIn9WR5S3iwY-1" value="" style="rounded=0;whiteSpace=wrap;html=1;" parent="1" vertex="1">
          <mxGeometry x="-172" y="502" width="1244" height="190" as="geometry" />
        </mxCell>
        <mxCell id="rz9Mc_KAGIn9WR5S3iwY-4" value="" style="rounded=0;whiteSpace=wrap;html=1;" parent="1" vertex="1">
          <mxGeometry x="989.5" y="414" width="27" height="79" as="geometry" />
        </mxCell>
        <mxCell id="rz9Mc_KAGIn9WR5S3iwY-6" value="" style="rounded=0;whiteSpace=wrap;html=1;" parent="1" vertex="1">
          <mxGeometry x="641" y="242" width="27" height="61" as="geometry" />
        </mxCell>
        <mxCell id="rz9Mc_KAGIn9WR5S3iwY-9" value="Utente" style="shape=umlActor;verticalLabelPosition=bottom;verticalAlign=top;html=1;outlineConnect=0;" parent="1" vertex="1">
          <mxGeometry x="-82" y="108" width="30" height="60" as="geometry" />
        </mxCell>
        <mxCell id="rz9Mc_KAGIn9WR5S3iwY-10" value="Sistema" style="rounded=0;whiteSpace=wrap;html=1;" parent="1" vertex="1">
          <mxGeometry x="594.5" y="124" width="120" height="60" as="geometry" />
        </mxCell>
        <mxCell id="rz9Mc_KAGIn9WR5S3iwY-11" value="Database" style="rounded=0;whiteSpace=wrap;html=1;" parent="1" vertex="1">
          <mxGeometry x="943" y="124" width="120" height="60" as="geometry" />
        </mxCell>
        <mxCell id="rz9Mc_KAGIn9WR5S3iwY-12" value="" style="endArrow=none;dashed=1;html=1;rounded=0;fontSize=12;startSize=8;endSize=8;curved=1;" parent="1" source="rz9Mc_KAGIn9WR5S3iwY-19" edge="1">
          <mxGeometry width="50" height="50" relative="1" as="geometry">
            <mxPoint x="-66" y="802" as="sourcePoint" />
            <mxPoint x="-68" y="198" as="targetPoint" />
          </mxGeometry>
        </mxCell>
        <mxCell id="rz9Mc_KAGIn9WR5S3iwY-13" value="" style="endArrow=none;dashed=1;html=1;rounded=0;fontSize=12;startSize=8;endSize=8;curved=1;" parent="1" source="rz9Mc_KAGIn9WR5S3iwY-6" edge="1">
          <mxGeometry width="50" height="50" relative="1" as="geometry">
            <mxPoint x="652" y="817" as="sourcePoint" />
            <mxPoint x="655" y="188" as="targetPoint" />
          </mxGeometry>
        </mxCell>
        <mxCell id="rz9Mc_KAGIn9WR5S3iwY-14" value="" style="rounded=0;whiteSpace=wrap;html=1;" parent="1" vertex="1">
          <mxGeometry x="254.5" y="230" width="27" height="509" as="geometry" />
        </mxCell>
        <mxCell id="rz9Mc_KAGIn9WR5S3iwY-15" value="" style="endArrow=none;dashed=1;html=1;rounded=0;fontSize=12;startSize=8;endSize=8;curved=1;" parent="1" source="WGj3g64T1ybm-_4HWVq7-5" edge="1">
          <mxGeometry width="50" height="50" relative="1" as="geometry">
            <mxPoint x="1004" y="817" as="sourcePoint" />
            <mxPoint x="1002" y="184" as="targetPoint" />
          </mxGeometry>
        </mxCell>
        <mxCell id="rz9Mc_KAGIn9WR5S3iwY-16" value="" style="endArrow=none;dashed=1;html=1;rounded=0;fontSize=12;startSize=8;endSize=8;curved=1;" parent="1" target="rz9Mc_KAGIn9WR5S3iwY-19" edge="1">
          <mxGeometry width="50" height="50" relative="1" as="geometry">
            <mxPoint x="-66" y="802" as="sourcePoint" />
            <mxPoint x="-68" y="198" as="targetPoint" />
          </mxGeometry>
        </mxCell>
        <mxCell id="rz9Mc_KAGIn9WR5S3iwY-17" style="edgeStyle=none;curved=1;rounded=0;orthogonalLoop=1;jettySize=auto;html=1;fontSize=12;startSize=8;endSize=8;" parent="1" edge="1">
          <mxGeometry relative="1" as="geometry">
            <mxPoint x="247" y="247" as="targetPoint" />
            <mxPoint x="-54" y="247" as="sourcePoint" />
          </mxGeometry>
        </mxCell>
        <mxCell id="rz9Mc_KAGIn9WR5S3iwY-18" value="Inserisce Vecchia Password&lt;div&gt;Inserisce nuova Password&lt;/div&gt;" style="edgeLabel;html=1;align=center;verticalAlign=middle;resizable=0;points=[];fontSize=12;" parent="rz9Mc_KAGIn9WR5S3iwY-17" vertex="1" connectable="0">
          <mxGeometry x="0.1402" relative="1" as="geometry">
            <mxPoint x="-21" as="offset" />
          </mxGeometry>
        </mxCell>
        <mxCell id="rz9Mc_KAGIn9WR5S3iwY-19" value="" style="rounded=0;whiteSpace=wrap;html=1;" parent="1" vertex="1">
          <mxGeometry x="-80" y="213" width="22" height="160" as="geometry" />
        </mxCell>
        <mxCell id="rz9Mc_KAGIn9WR5S3iwY-20" value="Pagina Web" style="rounded=0;whiteSpace=wrap;html=1;" parent="1" vertex="1">
          <mxGeometry x="208" y="124" width="120" height="60" as="geometry" />
        </mxCell>
        <mxCell id="rz9Mc_KAGIn9WR5S3iwY-21" value="" style="endArrow=none;dashed=1;html=1;rounded=0;fontSize=12;startSize=8;endSize=8;curved=1;" parent="1" source="rz9Mc_KAGIn9WR5S3iwY-14" edge="1">
          <mxGeometry width="50" height="50" relative="1" as="geometry">
            <mxPoint x="269" y="817" as="sourcePoint" />
            <mxPoint x="267" y="184" as="targetPoint" />
          </mxGeometry>
        </mxCell>
        <mxCell id="rz9Mc_KAGIn9WR5S3iwY-26" value="" style="endArrow=none;dashed=1;html=1;rounded=0;fontSize=12;startSize=8;endSize=8;curved=1;" parent="1" target="rz9Mc_KAGIn9WR5S3iwY-14" edge="1">
          <mxGeometry width="50" height="50" relative="1" as="geometry">
            <mxPoint x="269" y="817" as="sourcePoint" />
            <mxPoint x="267" y="184" as="targetPoint" />
          </mxGeometry>
        </mxCell>
        <mxCell id="rz9Mc_KAGIn9WR5S3iwY-27" style="edgeStyle=none;curved=1;rounded=0;orthogonalLoop=1;jettySize=auto;html=1;fontSize=12;startSize=8;endSize=8;" parent="1" edge="1">
          <mxGeometry relative="1" as="geometry">
            <mxPoint x="641" y="260" as="targetPoint" />
            <mxPoint x="283" y="260" as="sourcePoint" />
          </mxGeometry>
        </mxCell>
        <mxCell id="rz9Mc_KAGIn9WR5S3iwY-28" value="Fornisci Vecchia Password" style="edgeLabel;html=1;align=center;verticalAlign=middle;resizable=0;points=[];fontSize=12;" parent="rz9Mc_KAGIn9WR5S3iwY-27" vertex="1" connectable="0">
          <mxGeometry x="0.1402" relative="1" as="geometry">
            <mxPoint x="-35" y="-1" as="offset" />
          </mxGeometry>
        </mxCell>
        <mxCell id="rz9Mc_KAGIn9WR5S3iwY-29" value="" style="endArrow=none;dashed=1;html=1;rounded=0;fontSize=12;startSize=8;endSize=8;curved=1;" parent="1" source="WGj3g64T1ybm-_4HWVq7-7" target="rz9Mc_KAGIn9WR5S3iwY-6" edge="1">
          <mxGeometry width="50" height="50" relative="1" as="geometry">
            <mxPoint x="652" y="817" as="sourcePoint" />
            <mxPoint x="650" y="184" as="targetPoint" />
          </mxGeometry>
        </mxCell>
        <mxCell id="rz9Mc_KAGIn9WR5S3iwY-30" value="" style="endArrow=none;dashed=1;html=1;rounded=0;fontSize=12;startSize=8;endSize=8;curved=1;" parent="1" source="rz9Mc_KAGIn9WR5S3iwY-37" target="rz9Mc_KAGIn9WR5S3iwY-4" edge="1">
          <mxGeometry width="50" height="50" relative="1" as="geometry">
            <mxPoint x="1004" y="817" as="sourcePoint" />
            <mxPoint x="1002" y="184" as="targetPoint" />
          </mxGeometry>
        </mxCell>
        <mxCell id="rz9Mc_KAGIn9WR5S3iwY-31" style="edgeStyle=none;curved=1;rounded=0;orthogonalLoop=1;jettySize=auto;html=1;fontSize=12;dashed=1;endArrow=open;endFill=0;strokeColor=default;align=center;verticalAlign=middle;fontFamily=Helvetica;fontColor=default;labelBackgroundColor=default;" parent="1" edge="1">
          <mxGeometry relative="1" as="geometry">
            <mxPoint x="289" y="323.18" as="targetPoint" />
            <mxPoint x="979" y="323" as="sourcePoint" />
          </mxGeometry>
        </mxCell>
        <mxCell id="rz9Mc_KAGIn9WR5S3iwY-32" value="Risultato corrispondenza vecchia password" style="edgeLabel;html=1;align=center;verticalAlign=middle;resizable=0;points=[];fontSize=12;rounded=0;dashed=1;strokeColor=default;fontFamily=Helvetica;fontColor=default;labelBackgroundColor=default;" parent="rz9Mc_KAGIn9WR5S3iwY-31" vertex="1" connectable="0">
          <mxGeometry x="0.1402" relative="1" as="geometry">
            <mxPoint x="16" y="-1" as="offset" />
          </mxGeometry>
        </mxCell>
        <mxCell id="rz9Mc_KAGIn9WR5S3iwY-35" value="alt" style="rounded=0;whiteSpace=wrap;html=1;" parent="1" vertex="1">
          <mxGeometry x="-172" y="502" width="31" height="19" as="geometry" />
        </mxCell>
        <mxCell id="rz9Mc_KAGIn9WR5S3iwY-36" value="[Vecchia Password non&amp;nbsp;&lt;div&gt;corrisponde o Nuova&amp;nbsp;&lt;/div&gt;&lt;div&gt;Password non sicura&lt;/div&gt;" style="text;html=1;align=center;verticalAlign=middle;resizable=0;points=[];autosize=1;strokeColor=none;fillColor=none;fontSize=7;" parent="1" vertex="1">
          <mxGeometry x="-171" y="596" width="93" height="36" as="geometry" />
        </mxCell>
        <mxCell id="rz9Mc_KAGIn9WR5S3iwY-37" value="" style="rounded=0;whiteSpace=wrap;html=1;" parent="1" vertex="1">
          <mxGeometry x="989.5" y="524" width="27" height="35" as="geometry" />
        </mxCell>
        <mxCell id="rz9Mc_KAGIn9WR5S3iwY-38" style="edgeStyle=none;curved=1;rounded=0;orthogonalLoop=1;jettySize=auto;html=1;fontSize=12;startSize=8;endSize=8;" parent="1" edge="1">
          <mxGeometry relative="1" as="geometry">
            <mxPoint x="988" y="548" as="targetPoint" />
            <mxPoint x="654" y="551" as="sourcePoint" />
          </mxGeometry>
        </mxCell>
        <mxCell id="rz9Mc_KAGIn9WR5S3iwY-39" value="cambiaPassword(nuovaPassword)" style="edgeLabel;html=1;align=center;verticalAlign=middle;resizable=0;points=[];fontSize=12;" parent="rz9Mc_KAGIn9WR5S3iwY-38" vertex="1" connectable="0">
          <mxGeometry x="0.1402" relative="1" as="geometry">
            <mxPoint x="-23" y="-1" as="offset" />
          </mxGeometry>
        </mxCell>
        <mxCell id="rz9Mc_KAGIn9WR5S3iwY-40" value="&lt;font&gt;[Vecchia Password corrisponde&lt;/font&gt;&lt;div&gt;e Nuova Password è sicura]&lt;/div&gt;" style="text;html=1;align=center;verticalAlign=middle;resizable=0;points=[];autosize=1;strokeColor=none;fillColor=none;fontSize=7;" parent="1" vertex="1">
          <mxGeometry x="-177" y="522" width="116" height="28" as="geometry" />
        </mxCell>
        <mxCell id="rz9Mc_KAGIn9WR5S3iwY-41" value="" style="endArrow=none;dashed=1;html=1;rounded=0;fontSize=12;startSize=8;endSize=8;curved=1;" parent="1" target="rz9Mc_KAGIn9WR5S3iwY-37" edge="1">
          <mxGeometry width="50" height="50" relative="1" as="geometry">
            <mxPoint x="1004" y="817" as="sourcePoint" />
            <mxPoint x="1003" y="493" as="targetPoint" />
          </mxGeometry>
        </mxCell>
        <mxCell id="rz9Mc_KAGIn9WR5S3iwY-44" style="edgeStyle=none;curved=1;rounded=0;orthogonalLoop=1;jettySize=auto;html=1;fontSize=12;dashed=1;endArrow=open;endFill=0;" parent="1" edge="1">
          <mxGeometry relative="1" as="geometry">
            <mxPoint x="-69" y="644" as="targetPoint" />
            <mxPoint x="254.5" y="644" as="sourcePoint" />
          </mxGeometry>
        </mxCell>
        <mxCell id="rz9Mc_KAGIn9WR5S3iwY-45" value="Mostra Messaggio di Errore" style="edgeLabel;html=1;align=center;verticalAlign=middle;resizable=0;points=[];fontSize=12;" parent="rz9Mc_KAGIn9WR5S3iwY-44" vertex="1" connectable="0">
          <mxGeometry x="0.1402" relative="1" as="geometry">
            <mxPoint x="16" y="-1" as="offset" />
          </mxGeometry>
        </mxCell>
        <mxCell id="WGj3g64T1ybm-_4HWVq7-3" style="edgeStyle=none;curved=1;rounded=0;orthogonalLoop=1;jettySize=auto;html=1;fontSize=12;startSize=8;endSize=8;" parent="1" edge="1">
          <mxGeometry relative="1" as="geometry">
            <mxPoint x="982" y="286" as="targetPoint" />
            <mxPoint x="668" y="286" as="sourcePoint" />
          </mxGeometry>
        </mxCell>
        <mxCell id="WGj3g64T1ybm-_4HWVq7-4" value="Controlla Vecchia Password" style="edgeLabel;html=1;align=center;verticalAlign=middle;resizable=0;points=[];fontSize=12;" parent="WGj3g64T1ybm-_4HWVq7-3" vertex="1" connectable="0">
          <mxGeometry x="0.1402" relative="1" as="geometry">
            <mxPoint x="-35" y="-1" as="offset" />
          </mxGeometry>
        </mxCell>
        <mxCell id="WGj3g64T1ybm-_4HWVq7-6" value="" style="endArrow=none;dashed=1;html=1;rounded=0;fontSize=12;startSize=8;endSize=8;curved=1;" parent="1" source="rz9Mc_KAGIn9WR5S3iwY-4" target="WGj3g64T1ybm-_4HWVq7-5" edge="1">
          <mxGeometry width="50" height="50" relative="1" as="geometry">
            <mxPoint x="1003" y="414" as="sourcePoint" />
            <mxPoint x="1002" y="184" as="targetPoint" />
          </mxGeometry>
        </mxCell>
        <mxCell id="WGj3g64T1ybm-_4HWVq7-8" value="" style="endArrow=none;dashed=1;html=1;rounded=0;fontSize=12;startSize=8;endSize=8;curved=1;" parent="1" source="ftbtAVPYyE-yexrDYXyi-1" target="WGj3g64T1ybm-_4HWVq7-7" edge="1">
          <mxGeometry width="50" height="50" relative="1" as="geometry">
            <mxPoint x="652" y="817" as="sourcePoint" />
            <mxPoint x="654" y="303" as="targetPoint" />
          </mxGeometry>
        </mxCell>
        <mxCell id="WGj3g64T1ybm-_4HWVq7-11" style="edgeStyle=none;curved=1;rounded=0;orthogonalLoop=1;jettySize=auto;html=1;fontSize=12;startSize=8;endSize=8;exitX=1;exitY=0.25;exitDx=0;exitDy=0;entryX=1;entryY=0.5;entryDx=0;entryDy=0;" parent="1" source="WGj3g64T1ybm-_4HWVq7-7" target="WGj3g64T1ybm-_4HWVq7-7" edge="1">
          <mxGeometry relative="1" as="geometry">
            <mxPoint x="733.8823529411766" y="380.0588235294117" as="targetPoint" />
            <Array as="points">
              <mxPoint x="736" y="374" />
            </Array>
          </mxGeometry>
        </mxCell>
        <mxCell id="WGj3g64T1ybm-_4HWVq7-7" value="" style="rounded=0;whiteSpace=wrap;html=1;" parent="1" vertex="1">
          <mxGeometry x="641" y="355" width="27" height="61" as="geometry" />
        </mxCell>
        <mxCell id="WGj3g64T1ybm-_4HWVq7-9" style="edgeStyle=none;curved=1;rounded=0;orthogonalLoop=1;jettySize=auto;html=1;fontSize=12;startSize=8;endSize=8;" parent="1" edge="1">
          <mxGeometry relative="1" as="geometry">
            <mxPoint x="641" y="369" as="targetPoint" />
            <mxPoint x="283" y="369" as="sourcePoint" />
          </mxGeometry>
        </mxCell>
        <mxCell id="WGj3g64T1ybm-_4HWVq7-10" value="Fornisci Nuova Password" style="edgeLabel;html=1;align=center;verticalAlign=middle;resizable=0;points=[];fontSize=12;" parent="WGj3g64T1ybm-_4HWVq7-9" vertex="1" connectable="0">
          <mxGeometry x="0.1402" relative="1" as="geometry">
            <mxPoint x="-35" y="-1" as="offset" />
          </mxGeometry>
        </mxCell>
        <mxCell id="WGj3g64T1ybm-_4HWVq7-13" value="Controlla sicurezza nuova password" style="edgeLabel;html=1;align=center;verticalAlign=middle;resizable=0;points=[];fontSize=12;" parent="1" vertex="1" connectable="0">
          <mxGeometry x="812" y="380" as="geometry" />
        </mxCell>
        <mxCell id="WGj3g64T1ybm-_4HWVq7-14" style="edgeStyle=none;curved=1;rounded=0;orthogonalLoop=1;jettySize=auto;html=1;fontSize=12;dashed=1;endArrow=open;endFill=0;strokeColor=default;align=center;verticalAlign=middle;fontFamily=Helvetica;fontColor=default;labelBackgroundColor=default;" parent="1" edge="1">
          <mxGeometry relative="1" as="geometry">
            <mxPoint x="286" y="402.18" as="targetPoint" />
            <mxPoint x="639.5" y="402" as="sourcePoint" />
          </mxGeometry>
        </mxCell>
        <mxCell id="WGj3g64T1ybm-_4HWVq7-15" value="Risultato sicurezza nuova password" style="edgeLabel;html=1;align=center;verticalAlign=middle;resizable=0;points=[];fontSize=12;rounded=0;dashed=1;strokeColor=default;fontFamily=Helvetica;fontColor=default;labelBackgroundColor=default;" parent="WGj3g64T1ybm-_4HWVq7-14" vertex="1" connectable="0">
          <mxGeometry x="0.1402" relative="1" as="geometry">
            <mxPoint x="16" y="-1" as="offset" />
          </mxGeometry>
        </mxCell>
        <mxCell id="lRfdQ_UTXfmooMHx2yF3-1" value="" style="endArrow=none;dashed=1;html=1;rounded=0;fontSize=12;startSize=8;endSize=8;curved=1;" parent="1" edge="1">
          <mxGeometry width="50" height="50" relative="1" as="geometry">
            <mxPoint x="-275" y="591" as="sourcePoint" />
            <mxPoint x="1136" y="591" as="targetPoint" />
          </mxGeometry>
        </mxCell>
        <mxCell id="ftbtAVPYyE-yexrDYXyi-2" value="" style="endArrow=none;dashed=1;html=1;rounded=0;fontSize=12;startSize=8;endSize=8;curved=1;" parent="1" target="ftbtAVPYyE-yexrDYXyi-1" edge="1">
          <mxGeometry width="50" height="50" relative="1" as="geometry">
            <mxPoint x="652" y="817" as="sourcePoint" />
            <mxPoint x="654" y="416" as="targetPoint" />
          </mxGeometry>
        </mxCell>
        <mxCell id="ftbtAVPYyE-yexrDYXyi-1" value="" style="rounded=0;whiteSpace=wrap;html=1;" parent="1" vertex="1">
          <mxGeometry x="639" y="519" width="27" height="61" as="geometry" />
        </mxCell>
        <mxCell id="sAp862y8ywPHBFrC4rDU-1" value="29" style="text;html=1;align=center;verticalAlign=middle;resizable=0;points=[];autosize=1;strokeColor=none;fillColor=none;fontSize=16;" vertex="1" parent="1">
          <mxGeometry x="-164.5" y="69.5" width="36" height="31" as="geometry" />
        </mxCell>
      </root>
    </mxGraphModel>
  </diagram>
  <diagram id="9HrARdqwsGwSlSL4zKco" name="Pagina-5">
    <mxGraphModel dx="988" dy="1160" grid="0" gridSize="10" guides="1" tooltips="1" connect="1" arrows="1" fold="1" page="0" pageScale="1" pageWidth="827" pageHeight="1169" math="0" shadow="0">
      <root>
        <mxCell id="0" />
        <mxCell id="1" parent="0" />
        <mxCell id="JPDPwMcG7IWxvJpxkur1-1" value="" style="rounded=0;whiteSpace=wrap;html=1;" parent="1" vertex="1">
          <mxGeometry x="520" y="823" width="1244" height="190" as="geometry" />
        </mxCell>
        <mxCell id="JPDPwMcG7IWxvJpxkur1-6" value="Candidato" style="shape=umlActor;verticalLabelPosition=bottom;verticalAlign=top;html=1;outlineConnect=0;" parent="1" vertex="1">
          <mxGeometry x="610" y="517" width="30" height="60" as="geometry" />
        </mxCell>
        <mxCell id="JPDPwMcG7IWxvJpxkur1-7" value="Sistema" style="rounded=0;whiteSpace=wrap;html=1;" parent="1" vertex="1">
          <mxGeometry x="1286.5" y="533" width="120" height="60" as="geometry" />
        </mxCell>
        <mxCell id="JPDPwMcG7IWxvJpxkur1-8" value="Database" style="rounded=0;whiteSpace=wrap;html=1;" parent="1" vertex="1">
          <mxGeometry x="1635" y="533" width="120" height="60" as="geometry" />
        </mxCell>
        <mxCell id="JPDPwMcG7IWxvJpxkur1-9" value="" style="endArrow=none;dashed=1;html=1;rounded=0;fontSize=12;startSize=8;endSize=8;curved=1;" parent="1" source="JPDPwMcG7IWxvJpxkur1-16" edge="1">
          <mxGeometry width="50" height="50" relative="1" as="geometry">
            <mxPoint x="626" y="1211" as="sourcePoint" />
            <mxPoint x="624" y="607" as="targetPoint" />
          </mxGeometry>
        </mxCell>
        <mxCell id="JPDPwMcG7IWxvJpxkur1-11" value="" style="rounded=0;whiteSpace=wrap;html=1;" parent="1" vertex="1">
          <mxGeometry x="946.5" y="639" width="27" height="385" as="geometry" />
        </mxCell>
        <mxCell id="JPDPwMcG7IWxvJpxkur1-12" value="" style="endArrow=none;dashed=1;html=1;rounded=0;fontSize=12;startSize=8;endSize=8;curved=1;" parent="1" source="JPDPwMcG7IWxvJpxkur1-58" edge="1">
          <mxGeometry width="50" height="50" relative="1" as="geometry">
            <mxPoint x="1696" y="1226" as="sourcePoint" />
            <mxPoint x="1694" y="593" as="targetPoint" />
          </mxGeometry>
        </mxCell>
        <mxCell id="JPDPwMcG7IWxvJpxkur1-13" value="" style="endArrow=none;dashed=1;html=1;rounded=0;fontSize=12;startSize=8;endSize=8;curved=1;" parent="1" source="JPDPwMcG7IWxvJpxkur1-48" target="JPDPwMcG7IWxvJpxkur1-16" edge="1">
          <mxGeometry width="50" height="50" relative="1" as="geometry">
            <mxPoint x="626" y="1211" as="sourcePoint" />
            <mxPoint x="624" y="607" as="targetPoint" />
          </mxGeometry>
        </mxCell>
        <mxCell id="JPDPwMcG7IWxvJpxkur1-14" style="edgeStyle=none;curved=1;rounded=0;orthogonalLoop=1;jettySize=auto;html=1;fontSize=12;startSize=8;endSize=8;" parent="1" edge="1">
          <mxGeometry relative="1" as="geometry">
            <mxPoint x="939" y="656" as="targetPoint" />
            <mxPoint x="638" y="656" as="sourcePoint" />
          </mxGeometry>
        </mxCell>
        <mxCell id="JPDPwMcG7IWxvJpxkur1-15" value="selezionatoDettagliOfferta" style="edgeLabel;html=1;align=center;verticalAlign=middle;resizable=0;points=[];fontSize=12;" parent="JPDPwMcG7IWxvJpxkur1-14" vertex="1" connectable="0">
          <mxGeometry x="0.1402" relative="1" as="geometry">
            <mxPoint x="-21" as="offset" />
          </mxGeometry>
        </mxCell>
        <mxCell id="JPDPwMcG7IWxvJpxkur1-16" value="" style="rounded=0;whiteSpace=wrap;html=1;" parent="1" vertex="1">
          <mxGeometry x="612" y="622" width="22" height="160" as="geometry" />
        </mxCell>
        <mxCell id="JPDPwMcG7IWxvJpxkur1-17" value="Pagina Web" style="rounded=0;whiteSpace=wrap;html=1;" parent="1" vertex="1">
          <mxGeometry x="900" y="533" width="120" height="60" as="geometry" />
        </mxCell>
        <mxCell id="JPDPwMcG7IWxvJpxkur1-18" value="" style="endArrow=none;dashed=1;html=1;rounded=0;fontSize=12;startSize=8;endSize=8;curved=1;" parent="1" source="JPDPwMcG7IWxvJpxkur1-11" edge="1">
          <mxGeometry width="50" height="50" relative="1" as="geometry">
            <mxPoint x="961" y="1226" as="sourcePoint" />
            <mxPoint x="959" y="593" as="targetPoint" />
          </mxGeometry>
        </mxCell>
        <mxCell id="JPDPwMcG7IWxvJpxkur1-19" style="edgeStyle=none;curved=1;rounded=0;orthogonalLoop=1;jettySize=auto;html=1;fontSize=12;dashed=1;endArrow=open;endFill=0;" parent="1" edge="1">
          <mxGeometry relative="1" as="geometry">
            <mxPoint x="632" y="752" as="targetPoint" />
            <mxPoint x="944" y="752" as="sourcePoint" />
          </mxGeometry>
        </mxCell>
        <mxCell id="JPDPwMcG7IWxvJpxkur1-20" value="Mostra Pagina con dettagli offerta" style="edgeLabel;html=1;align=center;verticalAlign=middle;resizable=0;points=[];fontSize=12;" parent="JPDPwMcG7IWxvJpxkur1-19" vertex="1" connectable="0">
          <mxGeometry x="0.1402" relative="1" as="geometry">
            <mxPoint x="16" y="-1" as="offset" />
          </mxGeometry>
        </mxCell>
        <mxCell id="JPDPwMcG7IWxvJpxkur1-23" value="" style="endArrow=none;dashed=1;html=1;rounded=0;fontSize=12;startSize=8;endSize=8;curved=1;" parent="1" target="JPDPwMcG7IWxvJpxkur1-11" edge="1">
          <mxGeometry width="50" height="50" relative="1" as="geometry">
            <mxPoint x="961" y="1226" as="sourcePoint" />
            <mxPoint x="959" y="593" as="targetPoint" />
          </mxGeometry>
        </mxCell>
        <mxCell id="JPDPwMcG7IWxvJpxkur1-27" value="" style="endArrow=none;dashed=1;html=1;rounded=0;fontSize=12;startSize=8;endSize=8;curved=1;" parent="1" edge="1">
          <mxGeometry width="50" height="50" relative="1" as="geometry">
            <mxPoint x="1695" y="933" as="sourcePoint" />
            <mxPoint x="1694" y="593" as="targetPoint" />
          </mxGeometry>
        </mxCell>
        <mxCell id="JPDPwMcG7IWxvJpxkur1-32" value="opt" style="rounded=0;whiteSpace=wrap;html=1;" parent="1" vertex="1">
          <mxGeometry x="520" y="823" width="31" height="19" as="geometry" />
        </mxCell>
        <mxCell id="JPDPwMcG7IWxvJpxkur1-37" value="&lt;font&gt;[Pulsante dettagli Azienda&lt;/font&gt;&lt;div&gt;selezionato]&lt;/div&gt;" style="text;html=1;align=center;verticalAlign=middle;resizable=0;points=[];autosize=1;strokeColor=none;fillColor=none;fontSize=7;" parent="1" vertex="1">
          <mxGeometry x="520" y="845" width="99" height="28" as="geometry" />
        </mxCell>
        <mxCell id="JPDPwMcG7IWxvJpxkur1-39" value="" style="endArrow=none;dashed=1;html=1;rounded=0;fontSize=12;startSize=8;endSize=8;curved=1;" parent="1" edge="1">
          <mxGeometry width="50" height="50" relative="1" as="geometry">
            <mxPoint x="1696" y="1226" as="sourcePoint" />
            <mxPoint x="1695.0635208711437" y="968" as="targetPoint" />
          </mxGeometry>
        </mxCell>
        <mxCell id="JPDPwMcG7IWxvJpxkur1-45" value="" style="endArrow=none;dashed=1;html=1;dashPattern=1 3;strokeWidth=2;rounded=0;fontSize=12;startSize=8;endSize=8;curved=1;entryX=0.5;entryY=1;entryDx=0;entryDy=0;" parent="1" source="JPDPwMcG7IWxvJpxkur1-52" target="JPDPwMcG7IWxvJpxkur1-7" edge="1">
          <mxGeometry width="50" height="50" relative="1" as="geometry">
            <mxPoint x="1347" y="1215" as="sourcePoint" />
            <mxPoint x="1348" y="755" as="targetPoint" />
          </mxGeometry>
        </mxCell>
        <mxCell id="JPDPwMcG7IWxvJpxkur1-49" value="" style="endArrow=none;dashed=1;html=1;rounded=0;fontSize=12;startSize=8;endSize=8;curved=1;" parent="1" source="JPDPwMcG7IWxvJpxkur1-71" target="JPDPwMcG7IWxvJpxkur1-48" edge="1">
          <mxGeometry width="50" height="50" relative="1" as="geometry">
            <mxPoint x="626" y="1211" as="sourcePoint" />
            <mxPoint x="623" y="782" as="targetPoint" />
          </mxGeometry>
        </mxCell>
        <mxCell id="JPDPwMcG7IWxvJpxkur1-48" value="" style="rounded=0;whiteSpace=wrap;html=1;" parent="1" vertex="1">
          <mxGeometry x="614" y="842" width="22" height="56" as="geometry" />
        </mxCell>
        <mxCell id="JPDPwMcG7IWxvJpxkur1-50" style="edgeStyle=none;curved=1;rounded=0;orthogonalLoop=1;jettySize=auto;html=1;fontSize=12;startSize=8;endSize=8;" parent="1" edge="1">
          <mxGeometry relative="1" as="geometry">
            <mxPoint x="941" y="854" as="targetPoint" />
            <mxPoint x="640" y="854" as="sourcePoint" />
          </mxGeometry>
        </mxCell>
        <mxCell id="JPDPwMcG7IWxvJpxkur1-51" value="selezionatoDettagliAzienda" style="edgeLabel;html=1;align=center;verticalAlign=middle;resizable=0;points=[];fontSize=12;" parent="JPDPwMcG7IWxvJpxkur1-50" vertex="1" connectable="0">
          <mxGeometry x="0.1402" relative="1" as="geometry">
            <mxPoint x="-21" as="offset" />
          </mxGeometry>
        </mxCell>
        <mxCell id="JPDPwMcG7IWxvJpxkur1-53" value="" style="endArrow=none;dashed=1;html=1;dashPattern=1 3;strokeWidth=2;rounded=0;fontSize=12;startSize=8;endSize=8;curved=1;entryX=0.5;entryY=1;entryDx=0;entryDy=0;" parent="1" target="JPDPwMcG7IWxvJpxkur1-52" edge="1" source="esOiydUsHQ3xZFR5cpiA-3">
          <mxGeometry width="50" height="50" relative="1" as="geometry">
            <mxPoint x="1347" y="1215" as="sourcePoint" />
            <mxPoint x="1347" y="593" as="targetPoint" />
          </mxGeometry>
        </mxCell>
        <mxCell id="JPDPwMcG7IWxvJpxkur1-52" value="" style="rounded=0;whiteSpace=wrap;html=1;" parent="1" vertex="1">
          <mxGeometry x="1333" y="639" width="27" height="79" as="geometry" />
        </mxCell>
        <mxCell id="JPDPwMcG7IWxvJpxkur1-54" style="edgeStyle=none;curved=1;rounded=0;orthogonalLoop=1;jettySize=auto;html=1;fontSize=12;startSize=8;endSize=8;" parent="1" edge="1">
          <mxGeometry relative="1" as="geometry">
            <mxPoint x="1331" y="675" as="targetPoint" />
            <mxPoint x="973.5" y="675" as="sourcePoint" />
          </mxGeometry>
        </mxCell>
        <mxCell id="JPDPwMcG7IWxvJpxkur1-55" value="fornisci id offerta" style="edgeLabel;html=1;align=center;verticalAlign=middle;resizable=0;points=[];fontSize=12;" parent="JPDPwMcG7IWxvJpxkur1-54" vertex="1" connectable="0">
          <mxGeometry x="0.1402" relative="1" as="geometry">
            <mxPoint x="-21" as="offset" />
          </mxGeometry>
        </mxCell>
        <mxCell id="JPDPwMcG7IWxvJpxkur1-56" style="edgeStyle=none;curved=1;rounded=0;orthogonalLoop=1;jettySize=auto;html=1;fontSize=12;startSize=8;endSize=8;" parent="1" edge="1">
          <mxGeometry relative="1" as="geometry">
            <mxPoint x="1679" y="690" as="targetPoint" />
            <mxPoint x="1358" y="690" as="sourcePoint" />
          </mxGeometry>
        </mxCell>
        <mxCell id="JPDPwMcG7IWxvJpxkur1-57" value="trova offerta tramite id" style="edgeLabel;html=1;align=center;verticalAlign=middle;resizable=0;points=[];fontSize=12;" parent="JPDPwMcG7IWxvJpxkur1-56" vertex="1" connectable="0">
          <mxGeometry x="0.1402" relative="1" as="geometry">
            <mxPoint x="-15" y="-2" as="offset" />
          </mxGeometry>
        </mxCell>
        <mxCell id="JPDPwMcG7IWxvJpxkur1-61" value="" style="endArrow=none;dashed=1;html=1;rounded=0;fontSize=12;startSize=8;endSize=8;curved=1;" parent="1" target="JPDPwMcG7IWxvJpxkur1-58" edge="1">
          <mxGeometry width="50" height="50" relative="1" as="geometry">
            <mxPoint x="1695" y="823" as="sourcePoint" />
            <mxPoint x="1694" y="593" as="targetPoint" />
          </mxGeometry>
        </mxCell>
        <mxCell id="JPDPwMcG7IWxvJpxkur1-67" style="edgeStyle=none;curved=1;rounded=0;orthogonalLoop=1;jettySize=auto;html=1;fontSize=12;startSize=8;endSize=8;" parent="1" source="JPDPwMcG7IWxvJpxkur1-58" edge="1">
          <mxGeometry relative="1" as="geometry">
            <mxPoint x="1715" y="716" as="targetPoint" />
            <Array as="points">
              <mxPoint x="1746" y="679" />
            </Array>
          </mxGeometry>
        </mxCell>
        <mxCell id="JPDPwMcG7IWxvJpxkur1-58" value="" style="rounded=0;whiteSpace=wrap;html=1;" parent="1" vertex="1">
          <mxGeometry x="1681.5" y="662.5" width="27" height="79" as="geometry" />
        </mxCell>
        <mxCell id="JPDPwMcG7IWxvJpxkur1-65" style="edgeStyle=none;curved=1;rounded=0;orthogonalLoop=1;jettySize=auto;html=1;fontSize=12;dashed=1;endArrow=open;endFill=0;" parent="1" edge="1">
          <mxGeometry relative="1" as="geometry">
            <mxPoint x="974.5" y="736" as="targetPoint" />
            <mxPoint x="1674" y="736" as="sourcePoint" />
          </mxGeometry>
        </mxCell>
        <mxCell id="JPDPwMcG7IWxvJpxkur1-66" value="Fornisci Dettagli Offerta" style="edgeLabel;html=1;align=center;verticalAlign=middle;resizable=0;points=[];fontSize=12;" parent="JPDPwMcG7IWxvJpxkur1-65" vertex="1" connectable="0">
          <mxGeometry x="0.1402" relative="1" as="geometry">
            <mxPoint x="16" y="-1" as="offset" />
          </mxGeometry>
        </mxCell>
        <mxCell id="JPDPwMcG7IWxvJpxkur1-68" value="getOfferta()" style="edgeLabel;html=1;align=center;verticalAlign=middle;resizable=0;points=[];fontSize=12;" parent="1" vertex="1" connectable="0">
          <mxGeometry x="1774" y="697" as="geometry" />
        </mxCell>
        <mxCell id="JPDPwMcG7IWxvJpxkur1-69" value="visualizzaProfiloAzienda (34)" style="rounded=0;whiteSpace=wrap;html=1;" parent="1" vertex="1">
          <mxGeometry x="935" y="867" width="815" height="133" as="geometry" />
        </mxCell>
        <mxCell id="JPDPwMcG7IWxvJpxkur1-70" value="ref" style="rounded=0;whiteSpace=wrap;html=1;" parent="1" vertex="1">
          <mxGeometry x="935" y="867" width="49" height="19" as="geometry" />
        </mxCell>
        <mxCell id="JPDPwMcG7IWxvJpxkur1-72" value="" style="endArrow=none;dashed=1;html=1;rounded=0;fontSize=12;startSize=8;endSize=8;curved=1;" parent="1" target="JPDPwMcG7IWxvJpxkur1-71" edge="1">
          <mxGeometry width="50" height="50" relative="1" as="geometry">
            <mxPoint x="626" y="1211" as="sourcePoint" />
            <mxPoint x="625" y="898" as="targetPoint" />
          </mxGeometry>
        </mxCell>
        <mxCell id="JPDPwMcG7IWxvJpxkur1-71" value="" style="rounded=0;whiteSpace=wrap;html=1;" parent="1" vertex="1">
          <mxGeometry x="614" y="1023" width="22" height="160" as="geometry" />
        </mxCell>
        <mxCell id="esOiydUsHQ3xZFR5cpiA-1" style="edgeStyle=none;curved=1;rounded=0;orthogonalLoop=1;jettySize=auto;html=1;fontSize=12;startSize=8;endSize=8;" edge="1" parent="1">
          <mxGeometry relative="1" as="geometry">
            <mxPoint x="1331" y="1045" as="targetPoint" />
            <mxPoint x="640" y="1045" as="sourcePoint" />
          </mxGeometry>
        </mxCell>
        <mxCell id="esOiydUsHQ3xZFR5cpiA-2" value="Invia Candidatura" style="edgeLabel;html=1;align=center;verticalAlign=middle;resizable=0;points=[];fontSize=12;" vertex="1" connectable="0" parent="esOiydUsHQ3xZFR5cpiA-1">
          <mxGeometry x="0.1402" relative="1" as="geometry">
            <mxPoint x="-21" as="offset" />
          </mxGeometry>
        </mxCell>
        <mxCell id="esOiydUsHQ3xZFR5cpiA-4" value="" style="endArrow=none;dashed=1;html=1;dashPattern=1 3;strokeWidth=2;rounded=0;fontSize=12;startSize=8;endSize=8;curved=1;entryX=0.5;entryY=1;entryDx=0;entryDy=0;" edge="1" parent="1" target="esOiydUsHQ3xZFR5cpiA-3">
          <mxGeometry width="50" height="50" relative="1" as="geometry">
            <mxPoint x="1347" y="1215" as="sourcePoint" />
            <mxPoint x="1346" y="718" as="targetPoint" />
          </mxGeometry>
        </mxCell>
        <mxCell id="esOiydUsHQ3xZFR5cpiA-3" value="" style="rounded=0;whiteSpace=wrap;html=1;" vertex="1" parent="1">
          <mxGeometry x="1333" y="1029" width="27" height="55" as="geometry" />
        </mxCell>
        <mxCell id="esOiydUsHQ3xZFR5cpiA-5" style="edgeStyle=none;curved=1;rounded=0;orthogonalLoop=1;jettySize=auto;html=1;fontSize=12;startSize=8;endSize=8;" edge="1" parent="1">
          <mxGeometry relative="1" as="geometry">
            <mxPoint x="1672" y="1066" as="targetPoint" />
            <mxPoint x="1366" y="1066" as="sourcePoint" />
          </mxGeometry>
        </mxCell>
        <mxCell id="esOiydUsHQ3xZFR5cpiA-6" value="inviaCandidatura(Offerta)" style="edgeLabel;html=1;align=center;verticalAlign=middle;resizable=0;points=[];fontSize=12;" vertex="1" connectable="0" parent="esOiydUsHQ3xZFR5cpiA-5">
          <mxGeometry x="0.1402" relative="1" as="geometry">
            <mxPoint x="-21" as="offset" />
          </mxGeometry>
        </mxCell>
        <mxCell id="esOiydUsHQ3xZFR5cpiA-7" value="" style="rounded=0;whiteSpace=wrap;html=1;" vertex="1" parent="1">
          <mxGeometry x="1678" y="1052" width="27" height="44" as="geometry" />
        </mxCell>
        <mxCell id="gAhCOpciVmT5XKEX--2--1" value="21" style="text;html=1;align=center;verticalAlign=middle;resizable=0;points=[];autosize=1;strokeColor=none;fillColor=none;fontSize=16;" vertex="1" parent="1">
          <mxGeometry x="536.5" y="414.5" width="36" height="31" as="geometry" />
        </mxCell>
      </root>
    </mxGraphModel>
  </diagram>
</mxfile>
